<?xml version="1.0" standalone="no"?>
<!DOCTYPE svg PUBLIC "-//W3C//DTD SVG 20010904//EN"
 "http://www.w3.org/TR/2001/REC-SVG-20010904/DTD/svg10.dtd">
<svg version="1.0" xmlns="http://www.w3.org/2000/svg"
 width="734.000000pt" height="744.000000pt" viewBox="0 0 734.000000 744.000000"
 preserveAspectRatio="xMidYMid meet">

<g transform="translate(0.000000,744.000000) scale(0.100000,-0.100000)"
fill="#000000" stroke="none">
<path d="M0 7285 l0 -156 28 -25 27 -24 -27 10 -28 10 0 -430 0 -429 23 -7
c12 -5 25 -7 29 -6 5 1 8 -4 8 -11 0 -9 3 -8 9 2 6 9 14 10 25 4 14 -8 9 -17
-39 -62 l-55 -52 0 -333 0 -333 50 -7 c28 -4 55 -4 60 -1 5 3 7 0 5 -7 -8 -21
-45 -40 -58 -30 -7 5 -22 12 -34 15 -21 5 -23 2 -23 -39 l0 -44 38 0 c39 0 64
16 95 61 34 47 45 -10 31 -149 -4 -34 -11 -59 -15 -56 -5 3 -9 -8 -9 -25 0
-16 4 -33 10 -36 12 -7 10 -185 -3 -202 -5 -7 -6 -21 -2 -33 4 -11 2 -20 -4
-20 -11 0 -16 25 -12 71 2 27 1 27 -58 24 -49 -3 -61 0 -64 13 -2 10 -4 -12
-5 -47 0 -35 4 -73 10 -84 6 -12 6 -17 0 -13 -6 4 -10 -22 -10 -69 0 -70 2
-75 19 -70 12 4 19 2 19 -7 0 -8 5 -19 11 -25 9 -9 20 -3 45 22 44 46 48 71
11 68 -25 -2 -27 1 -24 32 4 40 29 69 46 52 16 -16 14 -24 -9 -30 -27 -7 -26
-24 2 -23 24 1 39 -35 31 -78 -4 -21 -9 -25 -26 -20 -17 5 -19 3 -13 -21 4
-17 3 -24 -4 -20 -5 3 -10 1 -10 -5 0 -7 6 -10 13 -7 37 14 42 -7 45 -197 2
-119 0 -192 -7 -205 -7 -13 -8 -22 -1 -26 15 -10 13 -304 -3 -335 -11 -21 -11
-27 2 -37 13 -10 0 -12 -66 -13 l-83 0 0 -1668 c0 -1284 3 -1671 12 -1680 9
-9 9 -15 0 -24 -9 -9 -12 -74 -12 -230 l0 -218 725 0 c638 0 725 2 725 15 0 8
4 15 9 15 5 0 11 -7 15 -15 3 -8 13 -15 21 -15 13 0 16 9 14 39 -3 39 22 93
36 79 4 -4 3 -32 -2 -62 l-10 -56 29 0 c16 0 39 5 50 11 15 8 22 8 28 -1 4 -6
20 -10 36 -8 22 2 29 8 27 23 -2 20 -4 302 -3 428 l0 68 108 -2 c59 -1 117 -6
130 -10 13 -5 22 -5 22 1 0 6 7 10 16 10 13 0 15 -24 12 -197 -2 -132 -7 -198
-14 -200 -6 -2 -9 -15 -6 -31 l6 -27 7 25 c5 18 7 8 8 -32 l1 -58 1983 0
c1111 0 1976 4 1968 9 -25 16 -17 401 9 401 5 0 10 -12 12 -27 5 -47 26 -37
55 26 41 89 46 90 300 88 116 -1 215 -5 218 -9 4 -4 10 -43 12 -87 4 -64 2
-85 -13 -109 -15 -26 -15 -33 -4 -47 10 -12 10 -19 2 -27 -17 -17 -15 -85 1
-91 17 -6 16 -63 -1 -93 -15 -28 -7 -34 44 -34 35 0 42 3 38 15 -4 11 -2 13 9
9 9 -3 21 4 30 16 22 31 41 16 21 -16 l-16 -24 285 0 285 0 7 30 c4 20 13 30
24 30 10 0 32 14 50 30 l31 30 0 110 c0 100 -2 110 -18 110 -16 0 -18 7 -16
46 2 28 9 51 19 58 14 10 15 174 13 1621 -3 1527 -4 1610 -20 1607 -10 -2 -18
3 -18 10 0 9 -3 9 -10 -2 -8 -12 -10 -9 -10 13 0 23 5 29 30 34 l30 6 0 307 0
307 -57 -5 c-32 -2 -64 -9 -70 -14 -8 -7 -24 -6 -45 1 -21 8 -111 11 -251 11
-121 -1 -221 1 -223 3 -7 7 -5 1044 2 1061 3 8 11 16 17 18 29 8 301 -8 304
-18 2 -6 -7 -22 -21 -37 -33 -35 -56 -84 -56 -118 0 -15 -7 -34 -15 -43 -8 -8
-15 -28 -15 -45 0 -16 -4 -32 -9 -35 -13 -8 -23 -87 -12 -100 5 -6 12 -30 16
-53 7 -42 27 -58 38 -30 4 9 6 9 6 0 1 -19 51 -16 51 2 0 10 7 15 18 13 11 -2
18 4 20 20 3 18 10 22 37 22 26 0 42 9 71 40 21 22 43 40 49 40 5 0 23 13 38
30 16 17 36 30 46 30 9 0 27 7 39 16 18 12 22 25 22 64 l0 49 -32 -10 c-18 -5
-43 -9 -55 -9 -28 0 -63 -29 -63 -52 0 -34 -19 -28 -26 9 -4 21 -10 43 -14 48
-4 6 -10 35 -14 65 -4 30 -12 60 -17 66 -15 18 12 23 124 26 l97 1 0 1014 0
1013 -929 0 c-528 0 -932 -4 -935 -9 -7 -11 -106 -10 -106 1 0 4 -15 8 -34 8
-30 0 -33 -3 -29 -21 5 -18 3 -20 -16 -14 -16 5 -27 1 -37 -12 -10 -13 -16
-15 -21 -6 -6 8 -15 6 -32 -9 l-25 -19 25 6 c19 4 26 0 37 -22 15 -33 16 -60
2 -68 -5 -3 -10 -15 -10 -25 0 -22 -68 -70 -100 -70 -11 0 -20 -4 -20 -10 0
-6 -10 -5 -25 2 -21 9 -25 18 -25 52 0 38 -1 39 -17 24 -9 -9 -17 -27 -18 -40
-2 -28 -34 -37 -51 -13 -9 12 -14 13 -20 4 -4 -7 0 -17 10 -25 21 -15 13 -34
-15 -34 -10 0 -19 -6 -19 -14 0 -19 -48 -56 -72 -56 -25 0 -18 24 8 29 28 5
35 23 17 43 -14 16 -14 20 2 44 10 15 21 39 25 53 5 21 12 25 34 23 18 -3 36
4 51 18 16 15 30 20 45 15 19 -6 21 -4 18 26 -4 43 -32 61 -52 34 -11 -16 -17
-17 -27 -8 -16 16 4 41 49 60 17 7 32 18 32 23 0 7 -258 10 -735 10 l-735 0 0
-43 c0 -24 -4 -47 -9 -53 -5 -5 -12 -19 -16 -31 -6 -20 -3 -23 24 -23 21 0 31
-5 31 -15 0 -9 7 -18 15 -21 17 -7 21 -34 5 -34 -5 0 -10 7 -10 15 0 21 -17
19 -30 -5 -6 -11 -17 -20 -26 -20 -8 0 -17 -7 -20 -15 -4 -10 -13 -13 -25 -10
-20 7 -27 -9 -9 -20 6 -3 10 -17 10 -31 0 -17 -5 -24 -20 -24 -14 0 -18 -5
-13 -16 3 -9 0 -20 -7 -24 -9 -6 -7 -13 9 -29 21 -21 29 -47 11 -36 -6 3 -10
-5 -10 -18 0 -37 -29 -43 -36 -8 l-6 29 -33 -19 -33 -20 -7 31 c-4 16 -13 30
-21 30 -26 0 -15 30 11 31 30 2 32 2 69 18 19 8 26 15 19 22 -6 6 -8 74 -5
174 l4 165 -1334 0 c-1322 0 -1335 0 -1353 -20 -23 -25 -30 -25 -41 1 -10 21
-10 21 -28 -6 -15 -23 -16 -31 -5 -51 7 -13 18 -24 26 -24 18 0 16 -20 -3 -34
-11 -9 -13 -20 -8 -40 l7 -28 44 44 c38 37 42 44 28 54 -12 9 -13 13 -2 17 17
6 42 -13 51 -39 5 -17 1 -24 -24 -34 -49 -20 -48 -36 4 -65 10 -5 17 -14 16
-18 -1 -4 6 -19 15 -33 18 -28 11 -52 -11 -33 -11 9 -14 8 -14 -6 0 -15 -10
-16 -74 -14 -54 3 -78 -1 -91 -11 -10 -8 -26 -14 -37 -12 -10 2 -18 -2 -18 -7
0 -6 -7 -11 -15 -11 -18 0 -20 17 -3 22 18 6 -1 28 -24 28 -17 0 -18 2 -8 15
10 12 10 15 -3 15 -9 0 -17 -10 -19 -22 -2 -16 -9 -22 -23 -20 -37 5 -240 2
-274 -5 l-33 -6 5 39 c6 40 12 215 9 272 l-2 32 -110 0 -110 0 0 -155z m927
113 c-3 -7 -5 -2 -5 12 0 14 2 19 5 13 2 -7 2 -19 0 -25z m4763 12 c0 -5 -4
-10 -10 -10 -5 0 -10 5 -10 10 0 6 5 10 10 10 6 0 10 -4 10 -10z m1550 -49 c0
-3 -15 -5 -32 -4 -41 2 -40 1 -34 11 6 10 66 3 66 -7z m-621 -15 c-2 -2 -20
-1 -39 2 l-35 6 30 6 c27 6 56 -3 44 -14z m-79 4 c0 -5 -3 -10 -8 -10 -4 0
-12 -10 -17 -22 -13 -29 -35 -35 -35 -10 0 11 10 27 23 35 26 19 37 21 37 7z
m128 -58 c1 20 7 40 12 43 6 4 10 -37 10 -114 0 -79 -4 -121 -11 -121 -5 0 -8
4 -4 9 3 5 2 36 -1 67 -5 39 -10 52 -14 39 -12 -34 -22 31 -13 84 l8 46 6 -45
c6 -44 6 -44 7 -8z m479 18 c-3 -13 2 -28 16 -41 l22 -21 -25 4 c-26 3 -38 33
-26 64 8 22 19 17 13 -6z m-6987 -10 c0 -5 -5 -10 -11 -10 -5 0 -7 5 -4 10 3
6 8 10 11 10 2 0 4 -4 4 -10z m6395 -50 c3 -5 1 -10 -4 -10 -6 0 -11 5 -11 10
0 6 2 10 4 10 3 0 8 -4 11 -10z m-728 -22 c-3 -8 -6 -5 -6 6 -1 11 2 17 5 13
3 -3 4 -12 1 -19z m1333 8 c0 -3 -4 -8 -10 -11 -5 -3 -10 -1 -10 4 0 6 5 11
10 11 6 0 10 -2 10 -4z m-2790 -26 c0 -5 -4 -10 -10 -10 -5 0 -10 5 -10 10 0
6 5 10 10 10 6 0 10 -4 10 -10z m2240 -20 c0 -11 -4 -20 -9 -20 -14 0 -23 18
-16 30 10 17 25 11 25 -10z m-3010 -10 c0 -13 -7 -20 -20 -20 -25 0 -26 16 -2
29 23 14 22 14 22 -9z m1245 -30 c17 -27 -55 -59 -75 -35 -8 9 -6 17 5 29 18
18 60 21 70 6z m-3948 -32 c-3 -8 -6 -5 -6 6 -1 11 2 17 5 13 3 -3 4 -12 1
-19z m901 -17 c-4 -28 12 -41 53 -41 43 0 49 -9 19 -28 -16 -10 -18 -16 -9
-39 7 -19 7 -28 -3 -34 -7 -5 -11 -23 -9 -46 1 -21 -3 -80 -10 -130 -9 -67
-10 -105 -2 -138 7 -31 7 -92 1 -188 -8 -118 -13 -146 -29 -163 -11 -12 -19
-35 -19 -56 0 -31 -3 -35 -25 -35 -25 0 -25 0 -8 19 16 18 16 21 2 31 -9 7
-15 27 -15 49 0 32 2 35 17 27 10 -5 27 -9 37 -9 19 0 20 7 20 143 -1 78 -4
129 -7 112 -16 -75 -22 12 -17 220 6 185 4 225 -7 232 -15 8 -31 85 -21 96 11
11 35 -5 32 -22z m1788 -8 c-3 -8 -6 -17 -6 -19 0 -2 -4 -4 -9 -4 -10 0 -21
36 -14 44 10 10 34 -7 29 -21z m-2521 -22 c3 -5 -4 -13 -16 -16 -23 -8 -34 -1
-24 14 8 13 32 14 40 2z m588 2 c-7 -2 -19 -2 -25 0 -7 3 -2 5 12 5 14 0 19
-2 13 -5z m-928 -38 c-1 -43 28 -86 46 -68 10 10 9 14 -4 19 -11 4 -17 17 -17
35 0 34 0 34 45 9 27 -15 35 -17 35 -6 0 9 7 12 20 9 12 -3 20 0 20 8 0 7 3
10 6 6 12 -12 -40 -68 -61 -65 -16 2 -19 -2 -17 -20 2 -13 -3 -25 -13 -28 -14
-6 -14 -8 1 -25 10 -11 14 -25 9 -36 -4 -10 -9 -35 -12 -55 -4 -31 -1 -39 21
-54 24 -15 25 -18 11 -34 -8 -9 -15 -22 -15 -29 0 -7 -5 -9 -12 -5 -14 9 -58
12 -58 4 0 -12 40 -29 55 -24 10 4 15 0 15 -11 0 -10 -5 -15 -14 -12 -7 3 -18
1 -23 -4 -5 -5 -63 -8 -129 -8 -295 4 -417 0 -426 -13 -4 -7 -7 78 -7 190 1
111 5 205 10 207 4 3 41 5 81 4 122 -1 141 1 160 18 16 14 18 14 24 -1 3 -9
12 -16 18 -16 7 0 20 -6 30 -13 15 -11 16 -18 8 -34 -8 -14 -8 -23 0 -31 9 -9
9 -12 0 -12 -7 0 -12 -9 -12 -20 0 -28 28 -25 36 4 3 15 15 27 30 30 28 7 30
18 9 50 -14 21 -13 24 5 41 20 18 20 18 20 -13 0 -17 5 -34 10 -37 6 -4 8 -10
5 -15 -3 -4 -2 -16 2 -26 6 -16 7 -16 14 2 4 10 8 31 8 47 1 17 7 27 16 27 8
0 19 9 25 20 16 30 27 24 25 -15z m1260 25 c4 -6 -5 -10 -20 -10 -15 0 -24 4
-20 10 3 6 12 10 20 10 8 0 17 -4 20 -10z m200 0 c3 -6 -4 -10 -17 -10 -18 0
-20 2 -8 10 19 12 18 12 25 0z m377 -2 c8 -26 -7 -244 -15 -221 -5 12 -7 46
-6 75 2 29 -1 77 -5 106 -7 43 -5 52 7 52 8 0 17 -6 19 -12z m2456 -16 c1 -5
-6 -17 -17 -24 -11 -8 -28 -31 -36 -51 -8 -20 -19 -37 -23 -37 -5 0 -7 -13 -4
-30 3 -22 0 -30 -11 -30 -9 0 -24 -8 -34 -19 -10 -10 -29 -22 -42 -26 -26 -8
-56 -34 -224 -192 -16 -16 -19 -15 -38 6 -20 21 -23 22 -38 6 -15 -15 -15 -17
2 -26 21 -12 22 -32 1 -50 -21 -17 -35 4 -27 43 5 23 2 28 -15 28 -21 0 -52
-24 -52 -41 0 -5 -7 -9 -15 -9 -8 0 -15 -4 -15 -10 0 -5 5 -10 10 -10 6 0 10
-21 10 -46 0 -30 -4 -43 -11 -38 -8 4 -9 0 -4 -14 8 -28 -55 -95 -82 -86 -17
5 -17 5 -1 -8 9 -8 16 -23 15 -34 -1 -10 4 -18 11 -17 7 2 12 -7 12 -22 0 -20
-5 -25 -25 -25 -16 0 -25 6 -25 16 0 10 -6 14 -15 10 -12 -4 -15 4 -17 42 -2
70 -3 76 -12 90 -5 9 -2 15 10 18 24 7 29 72 9 111 -16 30 -18 73 -5 113 6 19
8 12 9 -32 1 -31 6 -60 12 -63 7 -5 8 5 4 29 -6 31 -5 35 9 30 10 -4 18 0 22
12 3 11 10 27 15 36 14 26 14 257 1 270 -26 26 -13 45 34 52 89 12 96 10 89
-24 -6 -29 -5 -30 29 -30 41 0 49 21 14 37 -20 9 -16 11 30 17 28 4 55 7 59 7
5 1 15 5 24 9 26 14 199 22 199 9 0 -8 4 -8 14 0 7 6 21 9 30 5 9 -3 16 -2 16
2 0 13 93 9 98 -4z m-4058 -32 c0 -27 -37 -26 -45 0 -3 11 -3 24 0 30 10 16
45 -8 45 -30z m1280 32 c0 -5 -9 -17 -20 -27 -19 -18 -20 -17 -20 3 0 18 11
29 33 31 4 1 7 -3 7 -7z m370 -1 c0 -12 -20 -25 -27 -18 -7 7 6 27 18 27 5 0
9 -4 9 -9z m-316 -10 c3 -5 -1 -11 -9 -15 -15 -6 -29 7 -18 18 9 9 21 8 27 -3z
m-154 -7 c0 -3 -6 -12 -14 -20 -11 -10 -17 -11 -22 -3 -3 6 0 15 7 20 16 10
29 12 29 3z m35 -53 c25 -15 31 -27 38 -70 5 -29 7 -54 5 -56 -2 -3 -21 3 -41
12 -26 12 -41 28 -49 50 -10 27 -16 31 -35 27 -17 -5 -23 -2 -23 10 0 9 8 19
18 22 9 3 24 9 32 14 20 12 20 11 55 -9z m4455 -1 c0 -5 -4 -10 -10 -10 -5 0
-10 5 -10 10 0 6 5 10 10 10 6 0 10 -4 10 -10z m-5686 -19 c3 -5 -1 -11 -9
-15 -15 -6 -29 7 -18 18 9 9 21 8 27 -3z m-77 -27 c8 -20 -18 -46 -35 -35 -12
7 -12 12 -1 30 16 25 27 27 36 5z m2600 -31 c-3 -10 -5 -2 -5 17 0 19 2 27 5
18 2 -10 2 -26 0 -35z m3220 15 c-3 -8 -6 -5 -6 6 -1 11 2 17 5 13 3 -3 4 -12
1 -19z m-3859 -42 c-4 -29 -25 -30 -43 -2 -22 33 -12 48 20 33 17 -8 24 -19
23 -31z m392 31 c0 -7 -9 -18 -20 -25 -20 -12 -21 -12 -4 13 18 28 24 31 24
12z m-926 -23 c4 -10 1 -14 -6 -12 -15 5 -23 28 -10 28 5 0 13 -7 16 -16z
m1034 -2 c2 -7 -5 -12 -17 -12 -14 0 -19 5 -14 15 6 17 25 15 31 -3z m3329
-24 c-3 -7 -5 -2 -5 12 0 14 2 19 5 13 2 -7 2 -19 0 -25z m-2333 14 c3 -5 3
-18 0 -30 -8 -28 -44 -25 -44 4 0 27 32 45 44 26z m1296 -11 c0 -23 -16 -36
-25 -21 -11 18 -20 11 -20 -17 -1 -16 4 -31 10 -35 6 -5 4 -8 -5 -8 -8 0 -21
-14 -29 -31 -10 -22 -16 -27 -22 -18 -4 7 -5 18 -3 24 3 5 -5 -2 -18 -16 -13
-14 -31 -29 -42 -33 -12 -4 -16 -12 -12 -23 4 -9 1 -20 -5 -24 -6 -3 -15 -40
-19 -80 -4 -41 -12 -86 -18 -101 -6 -15 -8 -43 -5 -63 5 -32 2 -40 -23 -61
-16 -13 -35 -23 -41 -24 -7 0 -13 -7 -13 -15 0 -9 -12 -20 -26 -25 -33 -13
-30 -53 4 -58 26 -4 27 -10 7 -36 -14 -19 -15 -19 -35 -1 -11 10 -21 16 -23
14 -22 -31 -37 -61 -32 -68 3 -5 -1 -11 -7 -13 -7 -3 6 -8 29 -11 23 -4 45
-12 49 -18 5 -9 -3 -10 -30 -5 -21 4 -36 3 -36 -3 0 -5 -30 -9 -67 -8 -38 1
-113 -2 -168 -7 -95 -7 -252 -8 -395 -1 -51 2 -65 6 -64 18 1 9 -4 13 -12 10
-8 -3 -14 -11 -14 -19 0 -10 -13 -14 -41 -14 -47 0 -79 -14 -79 -36 0 -8 -5
-12 -11 -9 -6 4 -13 -2 -16 -14 -3 -12 -8 -21 -12 -22 -3 0 -18 -2 -33 -4
l-28 -4 0 74 c0 41 5 77 10 80 6 4 9 36 8 73 -3 64 -2 67 21 70 17 3 22 0 19
-10 -4 -9 4 -13 26 -13 26 0 31 4 34 28 4 31 28 37 37 8 3 -10 14 -26 25 -36
19 -17 20 -17 20 3 0 12 -5 22 -11 22 -8 0 -8 5 1 15 17 21 29 19 40 -7 5 -13
9 -17 9 -9 1 11 4 11 16 1 12 -10 18 -10 30 0 8 7 15 18 15 26 0 7 10 18 21
25 20 10 21 9 17 -15 -5 -23 -2 -26 21 -26 15 0 37 7 49 16 28 19 70 11 90
-18 10 -14 17 -17 25 -9 13 13 30 15 23 2 -3 -5 1 -15 10 -22 14 -11 19 -9 35
11 10 14 18 34 16 45 -1 14 3 19 16 17 9 -2 17 2 17 7 0 18 56 41 68 29 9 -9
17 -6 34 9 24 23 75 46 86 39 4 -2 13 2 20 10 11 12 10 14 -5 14 -12 0 -7 10
22 39 56 56 65 68 65 86 0 8 6 15 13 15 7 0 18 9 25 20 10 17 16 18 32 10 24
-13 40 -6 40 18 1 38 50 72 50 35 0 -34 20 3 30 56 5 29 12 57 16 62 8 14 26
-1 20 -17 -3 -7 -1 -16 3 -19 10 -6 38 25 31 34 -3 3 5 10 18 16 12 5 22 14
22 19 0 5 11 19 25 32 14 13 25 20 25 17 0 -4 5 -2 12 5 18 18 38 14 38 -7z
m-5450 -15 c0 -3 -4 -8 -10 -11 -5 -3 -10 -1 -10 4 0 6 5 11 10 11 6 0 10 -2
10 -4z m3229 -13 c1 9 7 17 14 17 10 0 13 -27 12 -122 -2 -145 -3 -147 -14
-129 -5 7 -6 30 -4 51 3 22 1 40 -6 44 -6 4 -11 15 -11 25 0 47 -63 50 -80 5
-13 -32 -28 -30 -32 4 -2 19 -9 27 -23 27 -16 0 -20 -7 -22 -40 -2 -26 3 -42
12 -48 17 -9 20 -37 4 -37 -6 0 -9 -9 -6 -20 4 -16 0 -20 -20 -20 -20 0 -23 4
-18 20 9 29 -15 25 -40 -6 -14 -17 -28 -25 -40 -22 -20 5 -20 5 0 13 11 5 34
24 51 42 28 31 30 39 27 94 -2 37 1 67 8 75 14 17 62 18 88 3 26 -17 72 -3 79
23 5 21 6 21 13 2 7 -16 8 -17 8 -1z m3248 -55 c-3 -7 -5 -2 -5 12 0 14 2 19
5 13 2 -7 2 -19 0 -25z m-3180 -60 c-2 -18 -4 -6 -4 27 0 33 2 48 4 33 2 -15
2 -42 0 -60z m615 40 c-7 -7 -12 -8 -12 -2 0 14 12 26 19 19 2 -3 -1 -11 -7
-17z m-3098 -74 c-9 -13 -21 -24 -26 -24 -12 0 1 42 15 52 21 13 27 -3 11 -28z
m-58 -12 c-4 -3 -12 0 -19 7 -9 9 -9 14 3 21 11 7 16 5 18 -6 2 -9 1 -18 -2
-22z m1854 28 c0 -5 -6 -10 -14 -10 -8 0 -18 5 -21 10 -3 6 3 10 14 10 12 0
21 -4 21 -10z m525 -81 c-8 -23 -8 -23 -15 -4 -9 26 -1 50 12 37 6 -6 7 -21 3
-33z m975 4 c0 -23 -4 -33 -9 -27 -9 8 -4 64 5 64 2 0 4 -17 4 -37z m-73 -19
c-9 -9 -28 6 -21 18 4 6 10 6 17 -1 6 -6 8 -13 4 -17z m30 -61 c-13 -12 -24 9
-19 34 l5 28 10 -28 c5 -16 7 -31 4 -34z m-3230 -10 c-3 -10 -5 -2 -5 17 0 19
2 27 5 18 2 -10 2 -26 0 -35z m3274 -6 c-17 -17 -22 -3 -8 26 11 25 12 25 15
6 2 -12 -1 -26 -7 -32z m332 46 c-7 -2 -19 -2 -25 0 -7 3 -2 5 12 5 14 0 19
-2 13 -5z m945 -17 c3 -13 -1 -17 -14 -14 -11 2 -20 11 -22 22 -3 13 1 17 14
14 11 -2 20 -11 22 -22z m-2948 -7 c0 -15 4 -19 16 -15 24 9 38 -4 19 -18 -13
-9 -15 -21 -10 -48 7 -36 8 -36 56 -36 27 -1 51 3 54 9 4 5 12 6 18 2 7 -5 91
-8 187 -8 170 -1 175 0 193 22 10 13 28 23 40 23 12 0 28 9 34 19 12 20 67 51
89 51 25 0 24 -19 -1 -44 -14 -14 -28 -26 -31 -26 -9 0 -64 -58 -64 -67 0 -4
4 -3 8 2 8 12 112 7 112 -5 0 -5 -15 -14 -34 -20 -50 -16 -126 -77 -126 -100
0 -11 -5 -20 -11 -20 -6 0 -8 9 -4 21 5 14 1 25 -12 34 -28 22 -31 19 -27 -32
3 -33 1 -40 -4 -23 -10 31 -50 40 -69 14 -18 -24 -29 -10 -15 20 10 22 7 28
-26 56 -30 26 -43 30 -68 25 -22 -4 -34 -1 -37 7 -4 9 -6 9 -6 -2 -1 -21 -35
-40 -60 -33 -30 8 -26 -6 5 -17 18 -7 33 -6 55 5 28 15 29 15 29 -10 0 -22 -4
-25 -35 -25 -25 0 -35 -4 -35 -15 0 -19 -34 -32 -75 -30 -26 1 -31 7 -39 38
-7 26 -15 37 -28 37 -27 0 -33 27 -13 50 10 11 16 20 14 21 -2 1 -20 2 -39 3
-68 5 -103 61 -84 134 8 28 24 29 24 1z m1380 6 c0 -8 -7 -15 -15 -15 -9 0
-20 -10 -25 -22 -10 -26 -13 -5 -4 30 7 25 44 31 44 7z m-1429 -68 l-4 -42 -9
35 c-9 41 0 97 11 67 4 -10 4 -37 2 -60z m-793 1 l-13 -23 -3 22 c-2 12 3 32
10 45 l13 23 3 -22 c2 -12 -3 -32 -10 -45z m942 36 c0 -8 -5 -12 -10 -9 -6 4
-8 11 -5 16 9 14 15 11 15 -7z m-908 -26 c-9 -9 -12 -7 -12 12 0 19 3 21 12
12 9 -9 9 -15 0 -24z m953 22 c3 -5 -1 -10 -10 -10 -9 0 -13 5 -10 10 3 6 8
10 10 10 2 0 7 -4 10 -10z m1285 6 c0 -3 -4 -8 -10 -11 -5 -3 -10 -1 -10 4 0
6 5 11 10 11 6 0 10 -2 10 -4z m1453 -16 c-3 -11 -9 -20 -14 -20 -11 0 -11 3
-3 24 9 23 23 20 17 -4z m-5306 -57 c-3 -10 -5 -2 -5 17 0 19 2 27 5 18 2 -10
2 -26 0 -35z m3997 31 c11 -29 6 -44 -14 -44 -11 0 -20 4 -20 10 0 5 -7 7 -15
4 -23 -9 -18 13 7 30 28 20 34 20 42 0z m-3378 -21 c-10 -10 -19 5 -10 18 6
11 8 11 12 0 2 -7 1 -15 -2 -18z m-700 1 c-3 -9 -6 -20 -6 -25 0 -5 -7 -9 -15
-9 -18 0 -18 5 -5 31 13 23 35 26 26 3z m1696 -24 c6 0 8 -3 5 -6 -12 -12 -36
17 -29 34 6 14 7 13 10 -5 2 -13 8 -23 14 -23z m-49 -43 c-3 -20 -10 -37 -15
-37 -6 0 -7 14 -3 33 13 60 28 64 18 4z m1970 6 c-13 -12 -23 -27 -23 -33 0
-20 -21 -10 -30 16 -7 17 -15 24 -25 20 -8 -3 -17 -1 -19 3 -3 5 -16 6 -28 4
-13 -2 -34 0 -48 6 -19 7 3 9 85 8 l110 -2 -22 -22z m-3639 -7 c15 -24 15 -25
-14 -39 l-29 -15 2 39 c1 45 17 50 41 15z m3321 14 c3 -5 -1 -10 -9 -10 -9 0
-16 5 -16 10 0 6 4 10 9 10 6 0 13 -4 16 -10z m449 1 c3 -4 -1 -17 -9 -27 -14
-18 -14 -18 -15 9 0 26 13 36 24 18z m276 -17 c0 -8 -9 -14 -20 -14 -22 0 -28
26 -7 33 16 6 27 -1 27 -19z m138 8 c3 -9 -2 -13 -14 -10 -9 1 -19 9 -22 16
-3 9 2 13 14 10 9 -1 19 -9 22 -16z m-80 -15 c3 -12 -3 -17 -22 -17 -25 0 -35
18 -19 34 12 12 38 2 41 -17z m-3635 -22 c7 -16 -8 -29 -23 -20 -15 9 -12 35
4 35 8 0 16 -7 19 -15z m2437 -40 c0 -8 0 -17 0 -20 0 -14 -14 -7 -27 13 -14
20 -14 22 6 22 12 0 21 -6 21 -15z m955 5 c3 -5 1 -10 -4 -10 -6 0 -11 5 -11
10 0 6 2 10 4 10 3 0 8 -4 11 -10z m-2240 -32 c-4 -18 -11 -34 -16 -36 -4 -2
-6 -17 -2 -33 6 -29 -1 -34 -31 -23 -20 8 -21 30 -1 38 22 8 18 23 -7 31 l-23
8 24 4 c13 3 26 13 28 24 3 10 12 19 20 19 11 0 13 -7 8 -32z m773 -27 c51 -1
54 -2 68 -37 12 -27 12 -39 3 -50 -6 -7 -15 -11 -20 -8 -5 3 -9 -2 -9 -11 0
-9 4 -13 10 -10 17 10 24 -40 22 -155 l-2 -75 -48 -27 c-112 -63 -262 -190
-262 -222 0 -9 -4 -16 -10 -16 -5 0 -10 11 -10 25 0 37 -18 31 -22 -7 -3 -27
-8 -34 -38 -42 -39 -11 -39 -11 -97 -61 -25 -22 -43 -31 -45 -24 -3 8 -11 10
-24 4 -10 -4 -30 -7 -44 -6 -35 2 -130 34 -130 43 0 4 -9 8 -20 8 -17 0 -19
-5 -14 -25 7 -28 -11 -34 -46 -15 -15 8 -20 5 -29 -20 -5 -17 -15 -30 -20 -30
-17 0 -13 32 6 45 17 12 17 14 -2 35 -19 21 -19 21 3 27 12 3 22 13 22 23 0
10 7 23 16 31 13 10 17 10 25 -2 5 -8 9 -23 9 -33 0 -15 3 -17 11 -9 16 16 21
102 17 348 -1 68 16 265 22 265 4 0 10 9 13 19 5 21 -37 20 645 12z m432 5 c0
-3 -4 -8 -10 -11 -5 -3 -10 -1 -10 4 0 6 5 11 10 11 6 0 10 -2 10 -4z m-162
-65 c2 -12 -2 -28 -8 -36 -6 -8 -9 -19 -5 -25 10 -16 -72 -93 -91 -86 -20 8
-18 29 6 49 11 9 20 23 20 31 0 8 7 16 15 20 8 3 15 16 15 29 0 45 42 62 48
18z m1382 19 c0 -5 -4 -10 -10 -10 -5 0 -10 5 -10 10 0 6 5 10 10 10 6 0 10
-4 10 -10z m-3277 -41 c16 -18 26 -20 86 -16 l68 4 -4 -211 c-5 -263 -5 -262
-23 -257 -8 2 -23 3 -32 3 -10 0 -18 6 -18 14 0 11 -4 12 -19 2 -15 -9 -23 -9
-37 3 -13 11 -18 11 -21 2 -3 -7 -15 -13 -28 -13 -17 0 -25 6 -27 23 -2 12 -7
22 -13 22 -5 0 -11 -10 -13 -22 -4 -26 -24 -30 -46 -8 -8 8 -19 15 -25 15 -6
0 -11 7 -11 15 0 8 7 15 16 15 9 0 14 6 12 13 -3 6 -10 12 -17 12 -6 0 -16 6
-20 14 -5 8 -14 10 -21 6 -10 -6 -9 -11 5 -21 10 -8 17 -15 14 -16 -32 -20
-52 -28 -56 -24 -13 13 -19 92 -16 197 5 130 5 122 -3 171 l-6 38 73 -2 c129
-2 140 0 146 22 7 25 14 25 36 -1z m1817 17 c0 -3 -4 -8 -10 -11 -5 -3 -10 -1
-10 4 0 6 5 11 10 11 6 0 10 -2 10 -4z m1160 -11 c0 -8 -7 -15 -15 -15 -9 0
-12 -6 -8 -16 4 -12 0 -14 -23 -9 -49 11 -56 14 -49 25 4 6 15 8 24 5 10 -3
24 1 31 10 16 19 40 19 40 0z m3170 5 c0 -5 -4 -10 -10 -10 -5 0 -10 5 -10 10
0 6 5 10 10 10 6 0 10 -4 10 -10z m-3050 -56 c0 -8 -7 -14 -15 -14 -17 0 -18
2 -9 24 7 18 24 12 24 -10z m80 10 c0 -9 -5 -14 -12 -12 -18 6 -21 28 -4 28 9
0 16 -7 16 -16z m-3676 -9 c-4 -8 -8 -15 -10 -15 -2 0 -4 7 -4 15 0 8 4 15 10
15 5 0 7 -7 4 -15z m4936 -5 c0 -5 -7 -10 -16 -10 -8 0 -12 5 -9 10 3 6 10 10
16 10 5 0 9 -4 9 -10z m-3501 -12 c-1 -7 -5 -24 -9 -38 -7 -22 -8 -21 -9 13
-1 20 4 37 9 37 6 0 10 -6 9 -12z m821 -9 c0 -5 -4 -9 -10 -9 -5 0 -10 7 -10
16 0 8 5 12 10 9 6 -3 10 -10 10 -16z m695 -34 c0 -37 -4 -50 -20 -59 -11 -6
-21 -11 -21 -11 -1 0 1 -20 5 -45 5 -35 10 -45 26 -46 11 0 35 -1 53 -2 36 -2
44 -27 12 -37 -13 -4 -33 -32 -52 -73 -17 -37 -34 -69 -38 -72 -4 -3 -12 -15
-19 -27 -12 -24 -35 -30 -46 -12 -4 5 5 34 19 63 34 69 34 90 1 82 -14 -4 -24
-3 -23 1 4 15 -36 132 -44 127 -4 -3 -4 -12 -1 -22 6 -14 4 -15 -9 -4 -9 7
-21 11 -28 10 -26 -6 -20 22 9 36 22 12 30 13 34 3 3 -9 7 -9 20 2 12 10 14
18 7 31 -14 26 -14 27 20 39 17 5 30 17 30 25 0 9 5 16 10 16 6 0 10 -9 10
-21 0 -11 4 -18 10 -14 5 3 7 12 3 20 -7 21 5 47 20 43 7 -3 12 -23 12 -53z
m-3206 28 c-17 -23 -72 -73 -80 -73 -3 0 -6 14 -6 31 0 24 4 29 17 26 10 -2
23 4 31 14 7 11 22 19 32 19 17 0 18 -2 6 -17z m3591 1 c0 -8 -5 -12 -10 -9
-6 4 -8 11 -5 16 9 14 15 11 15 -7z m578 -22 c2 -15 -2 -22 -12 -22 -20 0 -21
-24 -2 -43 12 -12 8 -15 -30 -24 -49 -11 -54 -9 -54 24 0 16 6 23 18 23 12 0
23 13 32 35 16 40 43 44 48 7z m-259 7 c20 -7 31 -17 29 -27 -4 -20 -28 -28
-28 -8 0 8 -11 16 -27 18 -14 2 -28 9 -31 16 -5 15 15 15 57 1z m63 -21 c-15
-15 -26 -4 -18 18 5 13 9 15 18 6 9 -9 9 -15 0 -24z m-1182 18 c0 -2 -7 -9
-15 -16 -12 -10 -15 -10 -15 4 0 9 7 16 15 16 8 0 15 -2 15 -4z m1295 -6 c3
-5 -1 -10 -9 -10 -9 0 -16 5 -16 10 0 6 4 10 9 10 6 0 13 -4 16 -10z m-507
-27 c0 -21 -2 -23 -10 -9 -5 9 -6 21 -3 26 10 16 13 12 13 -17z m52 17 c0 -5
-4 -10 -10 -10 -5 0 -10 5 -10 10 0 6 5 10 10 10 6 0 10 -4 10 -10z m-1120 -9
c0 -6 -4 -13 -10 -16 -5 -3 -10 1 -10 9 0 9 5 16 10 16 6 0 10 -4 10 -9z
m-921 -101 c0 -32 -1 -33 -13 -17 -9 12 -16 14 -21 8 -10 -18 -25 -13 -25 8 0
30 11 51 26 51 8 0 14 6 15 13 1 26 18 -30 18 -63z m2371 50 c0 -5 -5 -10 -11
-10 -5 0 -7 5 -4 10 3 6 8 10 11 10 2 0 4 -4 4 -10z m-2482 -27 c-4 -32 -38
-46 -38 -16 0 20 18 43 33 43 4 0 7 -12 5 -27z m200 -12 c3 -16 -1 -22 -10
-19 -7 3 -15 15 -16 27 -3 16 1 22 10 19 7 -3 15 -15 16 -27z m987 19 c-3 -5
-14 -10 -23 -10 -15 0 -15 2 -2 10 20 13 33 13 25 0z m905 -9 c0 -12 -20 -25
-27 -18 -7 7 6 27 18 27 5 0 9 -4 9 -9z m-3433 -82 c7 -15 8 -32 2 -40 -4 -8
-6 -24 -2 -37 5 -22 -11 -52 -28 -52 -5 0 -9 41 -9 92 0 77 2 90 13 78 7 -8
18 -27 24 -41z m2380 29 c-3 -8 -6 -5 -6 6 -1 11 2 17 5 13 3 -3 4 -12 1 -19z
m1653 1 c0 -24 -23 -21 -28 4 -2 10 3 17 12 17 10 0 16 -9 16 -21z m-1265 1
c3 -5 -9 -19 -29 -31 -19 -11 -39 -33 -45 -50 -12 -35 -30 -39 -23 -4 2 14 0
25 -5 25 -16 0 -33 -24 -33 -47 0 -13 -10 -29 -25 -39 -14 -9 -25 -22 -25 -30
0 -15 -38 -39 -47 -30 -4 3 -1 17 5 31 7 14 12 34 12 43 1 19 33 62 48 62 5 0
12 9 15 19 3 13 19 23 48 31 24 6 51 15 59 20 20 12 37 12 45 0z m-1460 -27
c33 -16 60 -64 48 -86 -6 -9 -60 -3 -93 11 -23 10 -20 11 23 11 41 1 47 4 47
22 0 15 -5 20 -22 17 -25 -3 -60 20 -52 34 7 11 8 11 49 -9z m123 -25 c2 -20
7 -25 23 -21 15 4 19 0 19 -20 0 -13 -7 -30 -15 -37 -13 -10 -15 -9 -15 8 0
29 -17 36 -23 10 -4 -12 -9 -19 -12 -16 -9 9 -15 71 -9 91 8 25 28 16 32 -15z
m62 13 c0 -6 -4 -13 -10 -16 -5 -3 -10 1 -10 9 0 9 5 16 10 16 6 0 10 -4 10
-9z m1910 -13 c0 -13 -23 -5 -28 10 -2 7 2 10 12 6 9 -3 16 -11 16 -16z m647
-195 c-2 -21 -4 -4 -4 37 0 41 2 58 4 38 2 -21 2 -55 0 -75z m-2607 81 c0 -8
-5 -12 -10 -9 -6 4 -8 11 -5 16 9 14 15 11 15 -7z m1934 -10 c22 -9 20 -34 -3
-34 -10 0 -24 -7 -31 -15 -15 -18 -36 -19 -46 -3 -4 6 5 21 22 35 32 25 35 26
58 17z m-1839 -14 c3 -5 1 -10 -4 -10 -6 0 -11 5 -11 10 0 6 2 10 4 10 3 0 8
-4 11 -10z m1895 -10 c0 -5 -4 -10 -10 -10 -5 0 -10 5 -10 10 0 6 5 10 10 10
6 0 10 -4 10 -10z m-2010 -40 c-16 -31 -23 -18 -8 15 7 15 14 23 16 17 2 -6
-2 -21 -8 -32z m1093 20 c-5 -20 -15 -25 -26 -13 -8 7 11 33 23 33 5 0 6 -9 3
-20z m775 -21 c-2 -6 -8 -10 -13 -10 -5 0 -11 4 -13 10 -2 6 4 11 13 11 9 0
15 -5 13 -11z m-3287 -29 c-2 -8 -4 -54 -5 -102 l-1 -86 35 -6 c19 -3 61 -6
93 -6 36 0 56 -4 52 -10 -7 -11 -134 -14 -184 -4 l-31 7 0 114 c0 113 0 114
23 111 13 -2 21 -9 18 -18z m745 -15 c-6 -17 -36 -9 -36 10 0 15 33 25 38 13
2 -5 1 -15 -2 -23z m2204 11 c0 -2 -7 -9 -15 -16 -13 -11 -14 -10 -9 4 5 14
24 23 24 12z m340 -23 c0 -10 -5 -25 -10 -33 -7 -11 -10 -7 -10 18 0 17 5 32
10 32 6 0 10 -8 10 -17z m-168 -28 c-2 -14 -11 -25 -19 -25 -10 0 -13 6 -9 16
3 9 6 20 6 25 0 5 6 9 14 9 9 0 12 -8 8 -25z m938 -150 c0 -86 -4 -144 -9
-137 -6 10 -10 8 -15 -10 -6 -17 -9 -19 -13 -8 -3 8 -10 18 -15 21 -6 4 -3 19
6 38 9 17 16 43 15 58 -2 65 15 213 22 201 5 -7 9 -80 9 -163z m-3245 75 c4
-6 -5 -10 -19 -10 -14 0 -26 5 -26 10 0 6 9 10 19 10 11 0 23 -4 26 -10z m-45
-21 c0 -5 -4 -9 -10 -9 -5 0 -10 7 -10 16 0 8 5 12 10 9 6 -3 10 -10 10 -16z
m587 4 c6 -18 -26 -30 -104 -38 -63 -6 -73 -5 -73 9 0 13 12 16 65 16 65 0 89
15 38 23 -16 3 -6 4 21 3 28 0 51 -6 53 -13z m216 -21 c6 -31 4 -34 -29 -48
-19 -8 -37 -21 -40 -28 -3 -8 -16 -17 -30 -20 -13 -4 -24 -10 -24 -15 0 -19
-33 -41 -63 -42 -18 -1 -24 -3 -14 -6 44 -12 1 -49 -74 -64 -64 -13 -133 -49
-143 -75 -3 -8 -19 -13 -41 -12 -35 1 -46 12 -22 21 9 4 8 8 -3 16 -12 8 -8
11 18 11 33 0 40 8 21 27 -8 8 -5 14 11 23 12 6 31 21 42 32 l20 20 -39 -6
c-21 -4 -51 -2 -66 3 -22 9 -33 7 -52 -5 -14 -9 -34 -14 -45 -11 -14 4 -20 0
-20 -13 0 -10 9 -20 20 -23 11 -3 20 -10 20 -15 0 -19 -30 -41 -46 -35 -12 5
-15 1 -11 -13 3 -10 2 -39 -3 -64 -4 -25 -8 -35 -9 -23 -1 29 -17 37 -31 16
-8 -14 -10 -5 -7 39 2 31 9 64 16 72 7 9 13 54 14 115 1 67 6 101 13 101 6 0
14 -13 18 -30 4 -24 11 -30 30 -30 14 0 31 6 38 13 20 20 45 26 57 14 8 -8 15
-6 25 9 12 15 17 17 27 7 7 -7 21 -13 31 -13 11 0 15 -5 12 -15 -4 -8 -3 -27
0 -41 5 -20 12 -25 26 -21 11 3 20 0 20 -6 0 -7 5 -4 11 6 7 12 17 16 30 12
30 -10 66 2 71 23 5 19 61 37 80 26 15 -9 58 5 55 18 -1 7 8 14 21 16 31 5 28
20 -5 24 l-28 4 30 13 c17 7 37 17 45 21 18 9 16 12 23 -28z m-550 2 c-28 -21
-48 -17 -22 5 13 11 28 17 32 14 5 -3 0 -11 -10 -19z m-298 -4 c3 -5 1 -10 -4
-10 -6 0 -11 5 -11 10 0 6 2 10 4 10 3 0 8 -4 11 -10z m95 0 c0 -5 -4 -10 -10
-10 -5 0 -10 5 -10 10 0 6 5 10 10 10 6 0 10 -4 10 -10z m2140 -20 c0 -5 13
-7 30 -3 24 4 30 2 30 -12 0 -9 -11 -26 -25 -37 -14 -11 -25 -28 -25 -39 0
-10 -5 -19 -11 -19 -8 0 -10 16 -6 50 4 29 2 50 -3 50 -6 0 -10 5 -10 10 0 6
5 10 10 10 6 0 10 -4 10 -10z m262 -12 c-7 -7 -12 -8 -12 -2 0 14 12 26 19 19
2 -3 -1 -11 -7 -17z m-2840 0 c-14 -14 -107 -21 -149 -12 -37 8 -37 9 27 14
99 8 131 7 122 -2z m308 2 c0 -5 -4 -10 -10 -10 -5 0 -10 5 -10 10 0 6 5 10
10 10 6 0 10 -4 10 -10z m2526 -45 c-3 -9 -11 -13 -16 -10 -8 5 -7 11 1 21 14
18 24 11 15 -11z m-1966 11 c0 -3 -4 -8 -10 -11 -5 -3 -10 -1 -10 4 0 6 5 11
10 11 6 0 10 -2 10 -4z m1661 -69 c-10 -12 -18 -14 -25 -7 -7 7 -15 0 -26 -22
-9 -20 -24 -34 -38 -36 -39 -6 -29 -24 20 -36 23 -5 30 -2 42 21 l14 28 11
-27 c10 -26 15 -28 63 -28 28 0 67 5 85 12 27 10 33 17 33 41 0 20 4 28 13 24
8 -3 21 7 29 21 16 27 18 33 18 52 0 6 5 10 10 10 6 0 10 -14 10 -31 0 -16 4
-28 9 -25 11 7 21 -153 12 -196 -7 -32 -7 -32 -14 -8 -6 22 -9 23 -17 8 -7
-11 -7 -26 1 -44 7 -21 7 -34 -2 -50 -12 -24 -7 -54 11 -54 5 0 10 8 10 17 0
12 3 14 10 7 12 -12 18 -89 8 -100 -13 -13 -29 9 -24 32 6 23 5 23 -26 9 -18
-7 -70 -16 -115 -20 -73 -7 -83 -5 -89 9 -4 10 -2 22 5 29 14 14 14 44 1 52
-5 3 -27 1 -47 -4 -21 -6 -65 -13 -97 -16 -33 -3 -62 -7 -64 -10 -3 -3 -11
-31 -18 -63 -10 -51 -10 -59 7 -78 11 -11 19 -27 20 -35 0 -8 4 -6 9 6 5 11 9
14 9 8 1 -9 12 -11 34 -7 17 3 40 6 50 7 9 1 17 5 17 9 0 4 15 8 34 8 19 0 41
7 50 15 16 16 96 21 96 6 0 -13 53 -21 67 -10 8 7 16 3 27 -13 l16 -22 11 32
c6 18 15 32 20 32 12 0 11 -478 -1 -485 -15 -9 -20 45 -24 228 -3 98 -7 181
-10 185 -3 3 -6 -27 -6 -67 0 -64 -2 -73 -20 -78 -23 -6 -27 -23 -6 -23 23 0
28 -17 21 -61 -5 -31 -10 -38 -20 -29 -10 8 -14 7 -18 -2 -3 -7 -6 -2 -6 11
-1 17 -5 22 -17 17 -9 -3 -24 -6 -35 -6 -14 0 -19 -7 -19 -26 0 -14 -4 -22
-10 -19 -5 3 -7 19 -4 34 11 54 -62 94 -100 55 -10 -10 -16 -33 -16 -67 l0
-51 -20 22 c-11 11 -17 28 -14 36 6 16 -18 24 -53 18 -16 -3 -23 -11 -23 -27
0 -13 -7 -25 -15 -29 -11 -4 -15 2 -15 24 0 17 -4 30 -9 30 -5 0 -13 29 -16
65 -7 58 -10 65 -29 65 -29 0 -49 35 -41 71 5 22 3 29 -9 29 -10 0 -15 -8 -13
-21 2 -23 -16 -30 -72 -29 -24 0 -24 -1 -6 -13 21 -16 13 -34 -20 -47 -13 -5
-25 -19 -27 -32 -3 -25 -55 -46 -85 -33 -16 6 -15 8 7 18 14 5 30 11 35 11 6
1 10 8 10 16 0 9 -7 14 -17 12 -22 -3 -23 7 -4 22 16 12 22 52 12 79 -3 9 -8
24 -11 32 -3 10 -17 15 -41 15 -25 0 -35 -4 -31 -12 2 -7 1 -22 -4 -33 -7 -19
-8 -19 -8 3 -1 26 1 26 -46 6 -21 -8 -44 -13 -53 -9 -8 3 -30 3 -49 -1 -33 -6
-34 -8 -33 -48 2 -53 -9 -93 -21 -74 -7 10 -9 9 -9 -4 0 -10 -12 -24 -27 -32
-16 -8 -27 -18 -25 -23 1 -4 -5 -8 -13 -7 -58 3 -78 6 -67 11 6 2 12 12 13 21
0 10 25 37 54 62 30 25 55 48 55 52 0 4 20 27 45 52 44 45 55 66 35 66 -16 0
-12 27 6 34 8 3 12 10 9 16 -10 16 -23 12 -30 -8 -7 -23 -46 -42 -85 -42 -45
0 -36 16 25 51 30 17 59 38 64 46 5 10 16 14 30 10 11 -3 24 -1 27 4 9 15 25
10 22 -8 -2 -10 7 -22 22 -30 14 -7 24 -17 22 -23 -1 -5 4 -10 11 -10 8 0 22
25 32 55 19 55 37 74 32 34 -1 -12 3 -24 10 -26 17 -6 27 35 13 52 -18 21 -5
43 27 47 20 2 28 9 28 23 0 12 8 21 20 23 11 2 17 1 13 -3 -8 -9 9 -35 22 -35
10 0 50 76 44 83 -3 3 3 4 12 4 11 -1 20 6 22 18 2 10 11 30 19 42 12 18 19
21 29 12 11 -9 15 -7 20 5 3 9 14 16 25 16 10 0 24 10 30 23 20 38 81 89 101
84 11 -3 25 4 36 18 l17 23 6 -26 c3 -17 0 -34 -10 -45z m-2954 -49 c-2 -18
-4 -6 -4 27 0 33 2 48 4 33 2 -15 2 -42 0 -60z m-153 48 c-10 -8 -21 -12 -23
-10 -3 2 4 11 15 18 10 8 21 12 23 10 3 -2 -4 -11 -15 -18z m2912 -52 c-4 -10
-13 -13 -25 -9 -13 4 -28 -3 -47 -23 -27 -27 -29 -27 -46 -10 -10 10 -18 20
-18 23 0 2 21 14 46 25 35 17 49 19 60 9 11 -9 15 -7 21 7 4 11 8 13 11 6 2
-7 1 -20 -2 -28z m4164 -9 c0 -14 -4 -25 -9 -25 -12 0 -19 21 -13 38 8 21 22
13 22 -13z m-5780 -29 c0 -3 -4 -8 -10 -11 -5 -3 -10 -1 -10 4 0 6 5 11 10 11
6 0 10 -2 10 -4z m2927 -28 c-3 -7 -5 -2 -5 12 0 14 2 19 5 13 2 -7 2 -19 0
-25z m-4070 0 c-3 -8 -6 -5 -6 6 -1 11 2 17 5 13 3 -3 4 -12 1 -19z m940 -30
c-3 -8 -6 -5 -6 6 -1 11 2 17 5 13 3 -3 4 -12 1 -19z m-827 -51 c0 -8 10 -19
23 -26 20 -11 19 -11 -10 -7 -25 4 -35 1 -43 -14 -16 -30 -13 -80 5 -80 13 0
15 -13 13 -81 l-3 -80 -29 5 c-20 4 -35 1 -49 -11 -19 -17 -20 -17 -15 3 3 12
2 57 -2 100 -6 56 -5 81 4 86 8 6 8 13 -1 28 -7 11 -13 36 -13 55 l0 35 60 0
c44 0 60 -4 60 -13z m430 -28 c0 -5 -4 -9 -10 -9 -5 0 -10 7 -10 16 0 8 5 12
10 9 6 -3 10 -10 10 -16z m85 0 c4 -11 4 -23 0 -27 -7 -7 -25 17 -25 36 0 20
18 14 25 -9z m-44 -30 c-6 -16 -10 -18 -10 -7 -1 22 12 55 16 42 2 -6 -1 -22
-6 -35z m393 -20 c-11 -18 -24 -8 -24 19 1 26 1 26 15 8 8 -10 12 -23 9 -27z
m3082 9 c7 -8 -15 -51 -33 -61 -8 -5 -11 -17 -7 -32 7 -28 -22 -48 -36 -25 -7
11 -15 10 -43 -3 -67 -32 -73 -19 -24 48 21 29 40 44 54 45 13 0 28 9 35 20
11 18 39 22 54 8z m-3216 -2 c0 -3 -4 -8 -10 -11 -5 -3 -10 -1 -10 4 0 6 5 11
10 11 6 0 10 -2 10 -4z m97 -38 c-3 -7 -5 -2 -5 12 0 14 2 19 5 13 2 -7 2 -19
0 -25z m-307 16 c0 -3 -5 -15 -11 -26 -14 -27 -19 -282 -5 -268 31 31 35 -5 4
-37 -12 -13 -18 -26 -13 -30 4 -5 10 -2 12 5 3 6 10 12 18 12 7 0 16 15 20 33
8 32 8 32 12 5 4 -27 46 -63 62 -54 5 3 11 -3 14 -14 3 -11 10 -20 16 -20 15
0 14 50 -1 50 -19 1 -51 49 -44 66 4 10 13 13 31 8 23 -6 25 -3 25 26 0 29 1
30 16 16 12 -12 14 -26 9 -56 -9 -54 0 -78 28 -73 15 3 31 -5 51 -26 34 -35
46 -39 47 -13 0 10 3 12 6 5 2 -7 13 -13 24 -13 12 0 19 -7 19 -20 0 -11 4
-20 9 -20 12 0 61 -47 61 -59 0 -6 12 -18 28 -28 15 -10 29 -20 32 -23 13 -14
61 -33 67 -26 4 3 -1 19 -10 35 -15 26 -15 30 -1 42 9 7 14 22 11 36 -5 26 0
28 27 8 11 -9 17 -22 13 -34 -2 -11 4 -45 14 -77 12 -35 15 -61 10 -68 -12
-14 -11 -117 0 -110 5 3 9 1 9 -4 0 -16 -28 -22 -96 -22 -57 0 -64 2 -64 20 0
11 -5 20 -11 20 -7 0 -17 7 -24 16 -9 14 -16 14 -33 5 -25 -13 -29 -31 -7 -31
8 0 15 -4 15 -10 0 -16 -18 -12 -40 10 -19 19 -18 50 1 50 5 0 9 7 9 15 0 8
-4 15 -9 15 -5 0 -11 -7 -15 -15 -8 -23 -35 -18 -46 9 -7 19 -14 23 -32 19
-23 -6 -23 -6 -4 15 16 18 17 24 6 37 -7 9 -20 13 -28 10 -8 -3 -22 1 -31 9
-25 22 -50 4 -33 -24 16 -27 15 -43 -3 -36 -8 3 -15 1 -15 -5 0 -6 -6 -9 -14
-6 -11 4 -13 0 -11 -15 3 -12 0 -27 -6 -34 -7 -9 -7 -19 1 -34 6 -11 8 -25 4
-31 -9 -16 -24 10 -24 44 0 15 -4 27 -10 27 -5 0 -10 -4 -10 -10 0 -5 -20 -7
-49 -3 -31 3 -51 1 -55 -6 -14 -22 -26 -10 -26 26 0 44 -11 37 -20 -14 -6 -32
-8 -25 -14 50 -11 113 -4 190 17 212 19 19 21 31 7 40 -5 3 -10 18 -10 33 0
15 -5 34 -10 42 -8 12 -10 11 -10 -8 0 -19 -4 -22 -27 -19 -30 4 -33 23 -8 61
8 12 11 33 8 50 l-6 29 -18 -24 c-19 -26 -23 -25 -33 6 -5 18 0 22 39 31 37 9
45 8 48 -5 3 -11 8 -6 16 14 10 23 14 26 21 15 8 -12 10 -10 10 8 0 12 -5 22
-10 22 -12 0 -3 49 11 65 5 5 9 23 9 40 0 18 3 35 7 38 8 8 23 9 23 1z m67
-24 c-6 -16 -15 -30 -19 -30 -12 0 -9 35 4 48 21 21 27 13 15 -18z m4530 -12
c-3 -7 -5 -2 -5 12 0 14 2 19 5 13 2 -7 2 -19 0 -25z m-5097 -13 c0 -8 -4 -15
-10 -15 -5 0 -10 7 -10 15 0 8 5 15 10 15 6 0 10 -7 10 -15z m530 -25 c0 -5
-4 -10 -10 -10 -5 0 -10 5 -10 10 0 6 5 10 10 10 6 0 10 -4 10 -10z m45 -10
c-3 -5 -11 -10 -16 -10 -6 0 -7 5 -4 10 3 6 11 10 16 10 6 0 7 -4 4 -10z m276
-2 c25 -9 26 -12 24 -79 -2 -61 0 -69 17 -69 12 0 18 -7 18 -24 0 -14 5 -28
10 -31 6 -3 10 -10 10 -15 0 -10 -29 -40 -39 -40 -9 0 -41 66 -41 85 0 8 -4
15 -10 15 -5 0 -10 10 -10 23 1 21 1 22 15 3 14 -18 15 -17 15 21 0 51 -15 93
-33 93 -7 0 -22 6 -33 14 -18 14 -18 15 6 14 14 0 37 -5 51 -10z m1959 -8 c0
-5 -4 -10 -10 -10 -5 0 -10 5 -10 10 0 6 5 10 10 10 6 0 10 -4 10 -10z m2321
-13 c-13 -13 -26 -3 -16 12 3 6 11 8 17 5 6 -4 6 -10 -1 -17z m-1948 6 c-7 -2
-19 -2 -25 0 -7 3 -2 5 12 5 14 0 19 -2 13 -5z m887 -24 c0 -5 -9 -9 -20 -9
-19 0 -27 20 -13 33 7 8 33 -11 33 -24z m-162 -7 c4 -25 -23 -41 -40 -24 -7 7
-6 17 2 32 14 26 34 22 38 -8z m111 -39 c1 -1 -12 -20 -30 -43 l-34 -42 -5
-184 c-4 -140 -8 -182 -17 -176 -17 11 -23 392 -7 392 7 0 15 20 18 44 l7 44
32 -16 c18 -9 34 -18 36 -19z m-4239 -10 c0 -25 0 -26 -20 -8 -11 10 -20 22
-20 27 0 4 9 8 20 8 15 0 20 -7 20 -27z m2244 -30 l19 -26 -28 7 c-24 6 -27 5
-16 -7 8 -10 9 -17 1 -22 -5 -3 -10 -16 -11 -28 l0 -22 -11 23 c-23 46 -48 11
-28 -39 15 -35 4 -52 -16 -25 -14 20 -14 20 -29 0 -8 -10 -15 -25 -15 -32 0
-8 -8 -10 -26 -6 -19 5 -32 0 -55 -22 -16 -15 -29 -33 -29 -38 0 -6 5 -4 10 4
8 12 10 12 10 -5 0 -30 -12 -42 -47 -50 -29 -6 -33 -4 -33 14 0 13 -10 26 -25
33 -21 10 -29 9 -43 -5 -10 -11 -12 -17 -4 -17 7 0 12 -7 12 -15 0 -10 -10
-15 -30 -15 -17 0 -33 -6 -36 -14 -3 -8 -12 -12 -20 -9 -8 3 -14 0 -14 -6 0
-6 -9 -11 -19 -11 -11 0 -27 -10 -35 -22 -9 -12 -16 -17 -16 -10 0 7 -10 26
-21 42 -23 30 -20 68 3 53 23 -14 49 -13 54 2 4 8 14 15 23 15 9 0 22 10 29
21 12 18 21 21 63 17 38 -4 52 -1 64 12 9 10 29 20 46 24 18 3 33 14 38 29 5
14 17 27 25 30 9 4 16 17 16 29 0 17 9 27 30 35 17 6 30 18 30 25 0 8 16 21
35 28 20 8 41 20 46 26 13 16 29 9 53 -23z m-2006 -1 c4 -23 17 -29 27 -12 10
16 22 11 28 -11 3 -12 12 -19 19 -17 12 4 14 8 17 44 0 9 8 14 18 12 15 -3 18
-16 19 -90 0 -95 6 -112 28 -82 21 28 44 4 29 -29 -10 -21 -19 -25 -63 -26
-28 0 -55 -3 -60 -6 -4 -3 -18 4 -31 14 -17 14 -33 17 -61 13 -39 -5 -54 12
-22 25 15 5 15 7 0 15 -9 5 -16 18 -16 29 0 17 4 19 35 13 28 -5 35 -3 35 10
0 10 -5 13 -16 9 -9 -3 -20 0 -25 8 -8 12 -11 11 -20 -3 -12 -22 -49 -24 -49
-4 0 8 9 18 21 21 16 5 20 13 16 32 -4 22 -2 24 19 20 20 -3 24 0 24 20 0 30
24 26 28 -5z m718 18 c37 0 34 -57 -6 -95 -16 -16 -33 -25 -37 -22 -4 4 -9 35
-11 69 -4 55 -3 60 13 55 9 -4 28 -7 41 -7z m-831 -50 c-3 -5 -10 -10 -16 -10
-5 0 -9 5 -9 10 0 6 7 10 16 10 8 0 12 -4 9 -10z m618 4 c9 -9 -4 -35 -14 -28
-5 3 -9 12 -9 20 0 14 12 19 23 8z m1817 -15 c0 -5 -4 -9 -10 -9 -5 0 -10 7
-10 16 0 8 5 12 10 9 6 -3 10 -10 10 -16z m-2016 -100 c-3 -5 -9 -9 -15 -9
-11 0 -12 43 -2 54 9 9 25 -33 17 -45z m-401 -19 c-6 -22 -18 -26 -28 -10 -4
6 -11 7 -17 4 -6 -4 -9 -3 -6 2 3 5 8 17 11 27 10 26 47 5 40 -23z m1057 -16
c0 -19 -16 -18 -24 2 -3 9 -13 14 -21 10 -16 -6 -29 9 -21 23 9 13 66 -17 66
-35z m-102 20 c18 -5 22 -12 18 -29 -7 -28 3 -38 22 -22 13 10 14 8 8 -11 -5
-13 -3 -22 3 -22 6 0 11 -4 11 -10 0 -20 -23 -9 -61 30 -22 22 -39 47 -39 55
0 17 4 18 38 9z m832 -4 c0 -5 -4 -10 -10 -10 -5 0 -10 5 -10 10 0 6 5 10 10
10 6 0 10 -4 10 -10z m-1340 -10 c0 -5 7 -7 16 -3 12 4 15 1 12 -13 -2 -13
-13 -20 -36 -22 -31 -3 -32 -3 -20 22 11 26 28 35 28 16z m1565 -10 c-3 -5
-10 -10 -16 -10 -5 0 -9 5 -9 10 0 6 7 10 16 10 8 0 12 -4 9 -10z m-932 -41
c-7 -7 -19 -8 -30 -4 -16 7 -15 9 7 15 30 8 38 4 23 -11z m860 4 c-7 -2 -19
-2 -25 0 -7 3 -2 5 12 5 14 0 19 -2 13 -5z m-1890 -28 c-7 -21 -13 -19 -13 6
0 11 4 18 10 14 5 -3 7 -12 3 -20z m145 8 c-6 -71 14 -112 28 -58 3 14 13 25
20 25 10 0 13 -7 8 -25 -6 -24 -4 -25 34 -25 23 0 42 5 45 13 3 9 10 9 30 -2
19 -10 27 -22 27 -42 0 -15 -4 -31 -10 -34 -15 -10 -12 -35 5 -35 28 0 15 -29
-20 -46 -20 -9 -49 -36 -66 -60 l-30 -44 -82 0 c-77 0 -166 18 -191 39 -7 6
-11 34 -10 68 2 32 3 66 3 77 1 12 6 16 16 12 9 -3 15 0 15 8 0 8 -5 16 -11
18 -8 3 -3 17 12 41 20 31 30 37 60 37 20 0 51 3 68 6 25 5 30 10 26 25 -4 13
-1 19 9 19 9 0 15 -8 14 -17z m5890 -5 c-6 -18 -28 -21 -28 -4 0 9 7 16 16 16
9 0 14 -5 12 -12z m-3658 -38 c0 -5 -4 -10 -10 -10 -5 0 -10 5 -10 10 0 6 5
10 10 10 6 0 10 -4 10 -10z m-920 -15 c0 -9 11 -32 24 -53 l24 -38 -30 -12
c-16 -6 -35 -9 -42 -6 -8 3 -16 -2 -20 -11 -3 -9 -11 -13 -16 -10 -21 13 -70
-6 -70 -26 0 -10 -6 -19 -14 -19 -11 0 -13 9 -9 34 4 28 2 35 -15 40 -10 4
-27 15 -36 25 -16 18 -16 20 12 40 33 23 52 27 52 10 0 -6 10 -9 23 -7 15 2
21 9 19 22 -3 16 1 18 27 13 17 -4 33 -2 36 3 10 16 35 12 35 -5z m542 -2 c7
-30 -3 -53 -23 -53 -19 0 -25 23 -13 54 8 21 32 20 36 -1z m-2125 -45 c-2 -13
-4 -5 -4 17 -1 22 1 32 4 23 2 -10 2 -28 0 -40z m1931 -18 c-13 -23 -36 -49
-53 -58 -16 -9 -34 -21 -38 -27 -5 -5 -5 1 -2 15 7 23 80 99 98 100 4 0 7 8 8
18 0 9 3 12 5 5 3 -6 -5 -30 -18 -53z m1032 10 c0 -5 -4 -10 -10 -10 -5 0 -10
5 -10 10 0 6 5 10 10 10 6 0 10 -4 10 -10z m110 -15 c-7 -8 -14 -15 -15 -15
-2 0 -5 7 -9 15 -4 10 1 15 16 15 17 0 18 -2 8 -15z m990 -25 c0 -39 -14 -39
-17 0 -1 17 2 30 7 30 6 0 10 -13 10 -30z m-38 5 c0 -5 -5 -11 -11 -13 -6 -2
-11 4 -11 13 0 9 5 15 11 13 6 -2 11 -8 11 -13z m-2653 -19 c7 -8 8 -17 3 -20
-14 -8 -92 -3 -92 7 0 5 11 7 24 5 15 -3 27 0 30 8 7 18 20 18 35 0z m1591 4
c0 -5 -4 -10 -9 -10 -6 0 -13 5 -16 10 -3 6 1 10 9 10 9 0 16 -4 16 -10z m130
-15 c0 -8 -9 -15 -20 -15 -20 0 -26 11 -13 23 12 13 33 7 33 -8z m-87 -31 c9
-4 17 -10 17 -15 0 -15 -17 -12 -110 19 -10 3 -7 7 10 12 14 4 34 3 45 -2 11
-5 28 -11 38 -14z m-2123 -4 c0 -5 -5 -10 -11 -10 -5 0 -7 5 -4 10 3 6 8 10
11 10 2 0 4 -4 4 -10z m490 0 c0 -5 -4 -10 -10 -10 -5 0 -10 5 -10 10 0 6 5
10 10 10 6 0 10 -4 10 -10z m1877 -132 c-2 -24 -4 -5 -4 42 0 47 2 66 4 43 2
-24 2 -62 0 -85z m-2313 77 c3 -8 1 -15 -4 -15 -6 0 -10 7 -10 15 0 8 2 15 4
15 2 0 6 -7 10 -15z m2280 -12 c3 -8 6 -129 6 -269 l0 -254 -215 0 -215 0 5
68 c2 37 5 156 5 264 l0 197 38 4 c20 2 112 4 204 5 139 0 167 -2 172 -15z
m-2484 -7 c0 -3 -4 -8 -10 -11 -5 -3 -10 -1 -10 4 0 6 5 11 10 11 6 0 10 -2
10 -4z m577 -28 c-3 -8 -6 -5 -6 6 -1 11 2 17 5 13 3 -3 4 -12 1 -19z m2743
-18 c0 -5 -4 -10 -10 -10 -5 0 -10 5 -10 10 0 6 5 10 10 10 6 0 10 -4 10 -10z
m-3111 -61 c10 -28 9 -30 -12 -23 -44 13 -67 24 -67 29 0 6 39 23 57 24 6 1
16 -13 22 -30z m98 14 c4 -10 11 -21 16 -24 5 -4 0 -12 -12 -18 -18 -10 -21
-9 -21 9 0 11 -4 20 -10 20 -5 0 -10 7 -10 15 0 21 29 19 37 -2z m28 7 c3 -5
1 -10 -4 -10 -6 0 -11 5 -11 10 0 6 2 10 4 10 3 0 8 -4 11 -10z m335 -30 c0
-5 -5 -10 -11 -10 -5 0 -7 5 -4 10 3 6 8 10 11 10 2 0 4 -4 4 -10z m2638 -2
c7 -7 12 -23 12 -37 0 -21 2 -23 10 -11 7 11 9 -1 8 -40 0 -30 -3 -43 -5 -29
-3 21 -8 25 -31 21 -26 -3 -27 -2 -26 40 3 64 3 68 12 68 4 0 13 -5 20 -12z
m-3498 -21 c15 4 20 0 20 -16 0 -12 -4 -20 -9 -16 -5 3 -13 0 -17 -6 -9 -15
-24 9 -23 36 0 11 3 15 5 9 3 -7 14 -10 24 -7z m77 -10 c8 -13 85 -38 116 -38
10 0 27 -9 38 -20 10 -10 26 -19 34 -19 8 0 15 -6 15 -14 0 -7 -7 -19 -15 -26
-8 -7 -15 -17 -15 -23 0 -5 9 -2 20 8 11 10 20 13 20 7 0 -15 53 -42 84 -42
13 0 26 -5 28 -11 2 -7 13 -9 26 -5 12 4 20 12 16 17 -3 5 -14 7 -24 4 -22 -7
-33 7 -24 29 8 21 30 21 38 0 5 -12 15 -15 38 -12 32 5 32 5 10 -10 -12 -8
-22 -25 -22 -38 0 -34 -39 -35 -103 -2 -44 22 -68 18 -60 -10 2 -11 0 -23 -7
-27 -7 -4 -14 1 -17 14 -4 14 -13 21 -30 21 -21 0 -24 -4 -20 -21 8 -28 -18
-57 -28 -31 -6 15 -8 15 -25 -5 -18 -23 -40 -31 -40 -14 0 5 -8 11 -17 15 -10
3 -23 9 -30 12 -20 9 -3 -79 19 -98 19 -17 17 -18 -58 -17 -44 1 -68 4 -55 6
22 5 23 7 17 64 -5 39 -3 59 4 59 5 0 10 7 10 15 0 8 -4 15 -9 15 -5 0 -9 15
-9 33 1 24 10 40 36 62 31 27 33 34 23 52 -21 41 -7 87 16 50z m6523 -9 c0
-13 -7 -31 -14 -40 -12 -16 -14 -16 -27 8 -12 23 -11 27 6 40 26 20 35 18 35
-8z m-3033 -155 c-2 -32 -3 -8 -3 52 0 61 1 87 3 58 2 -29 2 -78 0 -110z
m-2977 137 c0 -5 -4 -10 -9 -10 -6 0 -13 5 -16 10 -3 6 1 10 9 10 9 0 16 -4
16 -10z m-190 -31 c47 -25 52 -39 12 -36 -16 1 -37 13 -51 30 -27 32 -16 34
39 6z m310 -33 c0 -28 -16 -8 -24 29 -7 29 -7 29 8 10 8 -11 16 -29 16 -39z
m840 -18 c0 -29 -4 -48 -8 -41 -7 12 -4 93 4 93 2 0 4 -24 4 -52z m57 20 c-3
-7 -5 -2 -5 12 0 14 2 19 5 13 2 -7 2 -19 0 -25z m4908 18 c22 -9 35 -22 35
-33 0 -10 10 -23 22 -28 27 -13 35 -33 14 -41 -10 -4 -31 10 -61 41 -38 40
-49 47 -75 43 -19 -3 -30 0 -30 7 0 29 41 33 95 11z m-4935 -58 c0 -16 -3 -19
-11 -11 -6 6 -8 16 -5 22 11 17 16 13 16 -11z m-1598 -34 c-2 -14 -8 -22 -13
-17 -4 4 -5 21 -2 36 3 17 9 24 13 17 4 -6 5 -23 2 -36z m6014 19 c3 -10 12
-29 19 -43 7 -14 11 -38 7 -55 -4 -25 -3 -28 9 -19 8 6 42 14 77 17 55 4 62 3
62 -13 0 -10 -7 -20 -15 -24 -10 -3 -15 -19 -15 -44 l0 -39 -42 -1 c-24 0 -62
2 -85 4 l-43 5 0 115 c0 72 4 114 10 114 6 0 13 -8 16 -17z m-4356 -13 c0 -5
-4 -10 -10 -10 -5 0 -10 5 -10 10 0 6 5 10 10 10 6 0 10 -4 10 -10z m-1031
-21 c-16 -10 -23 -4 -14 10 3 6 11 8 17 5 6 -4 5 -9 -3 -15z m200 -3 c-3 -3
-16 -2 -29 1 -22 6 -22 7 -4 14 18 6 43 -5 33 -15z m-65 5 c3 -5 -1 -11 -9
-15 -15 -6 -29 7 -18 18 9 9 21 8 27 -3z m5434 -16 c15 -32 15 -35 1 -35 -5 0
-8 4 -4 9 3 5 -4 12 -15 16 -11 3 -20 13 -20 21 0 23 26 16 38 -11z m-221
-138 c-2 -23 -3 -1 -3 48 0 50 1 68 3 42 2 -26 2 -67 0 -90z m-4987 102 c10
-18 9 -20 -12 -17 -12 2 -24 11 -26 21 -5 24 25 22 38 -4z m5117 -1 c-3 -8 -6
-5 -6 6 -1 11 2 17 5 13 3 -3 4 -12 1 -19z m-5387 -23 c-7 -19 -15 -25 -26
-21 -13 5 -15 1 -10 -19 9 -35 -21 -34 -34 1 -13 34 -13 34 13 34 13 0 32 8
43 19 24 23 27 21 14 -14z m-271 -7 c15 -16 18 -25 10 -34 -6 -7 -8 -17 -5
-23 9 -14 -103 -26 -116 -13 -18 18 26 34 58 22 37 -14 50 0 36 39 -13 37 -10
38 17 9z m5897 11 c4 -7 -1 -16 -10 -21 -9 -5 -16 -18 -16 -28 0 -16 -7 -20
-34 -20 -28 0 -35 -4 -39 -22 -4 -21 -4 -20 -6 3 -1 19 5 28 19 32 12 3 20 14
20 26 0 13 9 25 23 31 30 12 35 12 43 -1z m161 -16 c4 -10 -56 -37 -64 -29 -2
2 -1 10 3 19 9 25 54 32 61 10z m-2979 -59 c-8 -8 -18 -10 -27 -5 -16 10 -6
31 15 31 8 0 15 6 15 13 1 6 3 4 6 -7 3 -10 -1 -24 -9 -32z m59 -16 c-3 -7 -5
-2 -5 12 0 14 2 19 5 13 2 -7 2 -19 0 -25z m-3092 13 c3 -5 1 -12 -5 -16 -5
-3 -10 1 -10 9 0 18 6 21 15 7z m-935 -27 c0 -2 -18 -4 -40 -4 -22 0 -40 3
-40 8 0 4 18 6 40 4 22 -2 40 -6 40 -8z m343 -1 c-7 -2 -21 -2 -30 0 -10 3 -4
5 12 5 17 0 24 -2 18 -5z m6322 -3 c3 -5 -3 -10 -14 -10 -12 0 -21 5 -21 10 0
6 6 10 14 10 8 0 18 -4 21 -10z m190 -10 c3 -5 1 -10 -4 -10 -6 0 -11 5 -11
10 0 6 2 10 4 10 3 0 8 -4 11 -10z m-5872 -7 c-7 -2 -19 -2 -25 0 -7 3 -2 5
12 5 14 0 19 -2 13 -5z m2104 -9 c-3 -3 -12 -4 -19 -1 -8 3 -5 6 6 6 11 1 17
-2 13 -5z m2191 -1 c-10 -2 -28 -2 -40 0 -13 2 -5 4 17 4 22 1 32 -1 23 -4z
m1102 -3 c0 -5 -7 -10 -16 -10 -8 0 -12 5 -9 10 3 6 10 10 16 10 5 0 9 -4 9
-10z m-2097 -7 c-7 -2 -19 -2 -25 0 -7 3 -2 5 12 5 14 0 19 -2 13 -5z m-62
-14 c245 0 451 -4 458 -8 8 -5 12 -142 13 -517 1 -280 3 -513 6 -518 2 -4 8
-3 12 4 11 18 30 3 30 -23 0 -28 -35 -53 -44 -32 -4 13 -46 15 -253 15 -136 0
-282 5 -323 10 -62 8 -76 8 -83 -5 -10 -19 -46 -19 -71 0 -11 9 -41 15 -69 15
-40 0 -50 -3 -54 -20 -3 -11 -12 -20 -19 -20 -8 0 -14 -7 -14 -15 0 -8 -8 -23
-18 -33 -17 -17 -20 -17 -42 -3 -13 9 -21 11 -17 4 4 -6 1 -14 -5 -17 -18 -7
40 -51 67 -51 11 0 21 -7 21 -15 4 -41 6 -44 15 -21 14 35 40 10 33 -32 -3
-25 -2 -28 5 -12 7 17 10 14 13 -20 4 -34 5 -30 7 20 1 33 5 54 8 48 2 -7 11
-13 19 -13 8 0 14 -6 15 -12 0 -7 4 -4 9 7 9 19 9 19 16 -2 3 -13 10 -20 15
-17 5 3 16 -11 26 -30 9 -20 21 -36 25 -36 5 0 7 -19 4 -42 -4 -24 -8 -61 -10
-83 -3 -22 -8 -48 -11 -57 -6 -14 -2 -18 15 -18 16 0 21 -5 18 -22 -5 -35 -43
-36 -60 -1 -9 19 -27 32 -60 43 -30 9 -48 21 -48 30 0 9 -4 20 -9 25 -5 6 -11
26 -13 45 -3 35 -4 35 -51 35 l-48 1 -13 -46 c-10 -33 -19 -46 -34 -48 -17 -3
-22 -10 -22 -33 0 -26 -3 -29 -30 -29 -26 0 -30 -4 -30 -26 0 -16 -5 -24 -12
-21 -7 2 -12 14 -10 25 2 12 -2 22 -7 22 -6 0 -11 -12 -11 -27 l-1 -28 -23 26
c-15 17 -26 46 -30 79 -6 46 -11 53 -36 63 -35 13 -37 22 -9 38 l21 11 -21 15
c-36 25 -11 70 52 94 32 13 35 35 7 44 -12 4 -20 14 -19 23 5 40 -13 71 -44
78 -18 4 -36 13 -42 20 -8 12 -39 12 -183 3 -95 -6 -175 -10 -176 -8 -10 11
-17 259 -8 259 6 0 13 -6 15 -12 3 -7 5 46 6 117 0 81 -4 123 -9 110 -8 -18
-9 -17 -9 8 -1 16 3 26 9 22 6 -4 10 12 10 39 0 25 -4 46 -10 46 -5 0 -10 7
-10 16 0 8 5 12 10 9 6 -3 10 1 10 9 0 9 -4 16 -10 16 -12 0 -13 127 -1 188 5
23 5 45 0 48 -13 8 -11 92 2 100 8 4 9 27 5 67 -5 50 -3 62 12 74 14 11 77 12
347 8 182 -2 531 -5 776 -6z m1552 4 c-7 -2 -21 -2 -30 0 -10 3 -4 5 12 5 17
0 24 -2 18 -5z m-2810 -20 c-7 -2 -19 -2 -25 0 -7 3 -2 5 12 5 14 0 19 -2 13
-5z m3381 -8 c-4 -8 -8 -15 -10 -15 -2 0 -4 7 -4 15 0 8 4 15 10 15 5 0 7 -7
4 -15z m194 8 c-10 -2 -26 -2 -35 0 -10 3 -2 5 17 5 19 0 27 -2 18 -5z m-3808
-13 c0 -5 -5 -10 -11 -10 -5 0 -7 5 -4 10 3 6 8 10 11 10 2 0 4 -4 4 -10z
m4245 -11 c5 -5 -1 -9 -17 -9 -26 0 -44 -23 -32 -42 4 -6 17 1 31 16 29 31 40
33 48 5 11 -33 -56 -89 -107 -89 -10 0 -18 -4 -18 -9 0 -5 -9 -11 -20 -14 -12
-3 -20 -14 -20 -26 0 -12 -6 -21 -15 -21 -9 0 -20 -12 -25 -26 -6 -14 -19 -28
-30 -31 -11 -3 -20 -12 -20 -20 0 -10 7 -14 20 -10 13 3 21 -1 25 -14 8 -23
-1 -39 -21 -39 -16 0 -19 -36 -4 -45 6 -3 10 -16 10 -28 -1 -19 -2 -20 -13 -6
-12 15 -53 19 -75 5 -7 -4 -12 -18 -12 -32 0 -30 -14 -31 -34 -2 l-15 21 -11
-27 c-5 -15 -10 -34 -10 -42 0 -8 -4 -14 -10 -14 -10 0 -14 15 -11 34 5 25
-11 58 -25 52 -8 -3 -13 -2 -9 3 3 5 2 17 -1 26 -6 14 -9 14 -30 -6 -13 -13
-20 -28 -17 -38 4 -9 2 -12 -3 -8 -5 5 -9 21 -10 37 -3 48 -14 80 -28 80 -23
0 -28 43 -7 63 15 16 17 26 9 65 -4 25 -15 50 -23 55 -8 4 -15 14 -15 21 0 7
-11 23 -25 36 -31 29 -35 56 -6 38 15 -9 24 -7 50 11 29 21 31 21 31 4 0 -16
6 -18 40 -15 35 4 40 2 40 -17 0 -12 5 -21 10 -21 6 0 10 15 10 34 0 30 4 36
34 46 22 7 42 7 58 1 16 -6 29 -6 35 0 6 6 27 6 58 -1 47 -10 105 -6 105 8 0
10 93 2 105 -9z m-5345 1 c0 -12 -45 -24 -59 -15 -22 13 -10 25 24 25 19 0 35
-4 35 -10z m864 4 c25 -9 19 -24 -9 -24 -14 0 -25 -5 -25 -11 0 -6 -8 -8 -17
-5 -17 6 -17 5 0 -8 9 -7 17 -20 17 -29 0 -8 6 -18 13 -20 6 -3 -3 -3 -20 0
-29 5 -33 3 -33 -17 0 -13 8 -24 20 -27 33 -9 24 -33 -12 -33 -28 -1 -30 -2
-15 -11 11 -6 35 -8 55 -5 21 4 57 6 80 6 24 -1 50 4 58 11 12 10 20 7 43 -15
29 -28 36 -66 14 -73 -7 -3 -17 7 -23 21 -10 28 -11 29 -34 20 -12 -5 -14 -10
-6 -19 8 -10 8 -15 0 -20 -15 -9 -40 1 -40 17 0 9 -20 14 -65 15 l-64 2 -7
-34 c-7 -39 -33 -55 -41 -25 -3 11 -10 20 -15 20 -5 0 -7 -4 -4 -9 3 -5 -2
-12 -11 -15 -27 -11 -32 12 -32 132 1 124 1 124 64 125 19 1 35 5 35 9 0 4 9
8 19 8 11 0 23 5 26 10 7 12 8 12 29 4z m147 -74 c10 0 19 -4 19 -10 0 -5 -6
-7 -14 -4 -8 3 -24 -4 -35 -15 -27 -27 -27 -26 -25 7 2 36 2 35 20 28 9 -3 24
-6 35 -6z m3781 -112 c-5 -43 -23 -58 -47 -38 -14 11 -14 15 1 31 14 16 15 24
5 45 -16 36 -4 49 22 24 18 -17 22 -30 19 -62z m-3412 46 c6 -14 14 -22 20
-19 14 8 13 -64 -1 -117 -12 -43 -12 -43 -60 -45 -36 -2 -49 2 -49 11 0 20
-60 27 -61 7 0 -9 -5 -3 -10 13 -10 35 -5 44 14 28 8 -7 17 -9 20 -5 12 12 7
50 -8 63 -12 10 -15 10 -15 -2 0 -8 -9 -23 -19 -32 -26 -24 -81 -13 -81 15 0
10 -5 19 -11 19 -6 0 -4 7 5 15 20 20 29 19 21 -4 -9 -28 11 -35 35 -11 11 11
27 20 35 20 8 0 24 9 35 20 l20 20 10 -25 c5 -14 16 -25 25 -25 18 0 20 -16 3
-23 -8 -3 -6 -6 5 -6 9 -1 17 3 17 8 0 5 9 11 21 14 27 7 15 27 -16 27 -13 0
-27 5 -30 10 -3 6 5 10 18 10 16 0 26 7 30 20 7 27 16 25 27 -6z m-330 -14 c0
-5 -4 -10 -10 -10 -5 0 -10 5 -10 10 0 6 5 10 10 10 6 0 10 -4 10 -10z m4387
-47 c-3 -10 -5 -4 -5 12 0 17 2 24 5 18 2 -7 2 -21 0 -30z m-730 -15 c-3 -8
-6 -5 -6 6 -1 11 2 17 5 13 3 -3 4 -12 1 -19z m503 -54 c0 -31 -23 -28 -28 4
-2 15 2 22 12 22 11 0 16 -9 16 -26z m-448 -16 c-9 -9 -12 -7 -12 12 0 19 3
21 12 12 9 -9 9 -15 0 -24z m-6555 -50 c-2 -13 -4 -3 -4 22 0 25 2 35 4 23 2
-13 2 -33 0 -45z m2517 -33 c-4 -8 -8 -15 -10 -15 -2 0 -4 7 -4 15 0 8 4 15
10 15 5 0 7 -7 4 -15z m56 5 c0 -5 -7 -10 -15 -10 -8 0 -15 5 -15 10 0 6 7 10
15 10 8 0 15 -4 15 -10z m608 -22 c-3 -23 -32 -32 -53 -17 -5 4 -19 9 -30 11
-18 5 -18 6 5 16 14 6 38 11 53 11 24 1 28 -3 25 -21z m-3181 -35 c-3 -10 -5
-4 -5 12 0 17 2 24 5 18 2 -7 2 -21 0 -30z m6733 -28 c11 -13 10 -18 -6 -31
-17 -13 -18 -16 -2 -26 14 -11 14 -14 -8 -31 -26 -20 -60 -16 -51 7 3 7 1 18
-5 24 -7 7 -2 20 18 41 34 35 37 36 54 16z m-4190 -15 c0 -11 7 -20 15 -20 8
0 23 -8 34 -19 18 -18 17 -18 -14 -30 -51 -18 -55 -15 -55 39 0 28 5 50 10 50
6 0 10 -9 10 -20z m4387 -36 c3 -8 -2 -23 -11 -32 -14 -14 -18 -15 -25 -3 -12
18 -2 51 15 51 8 0 17 -7 21 -16z m-3744 -11 c3 -10 4 -61 3 -113 -1 -84 -3
-95 -18 -94 -12 1 -18 -5 -18 -21 0 -13 -7 -25 -15 -29 -9 -3 -15 -18 -15 -36
0 -17 -6 -39 -12 -50 -10 -16 -10 -24 0 -40 16 -26 15 -29 -8 -23 -11 3 -20 9
-20 14 0 5 -9 9 -20 9 -12 0 -20 -7 -20 -16 0 -10 -6 -14 -14 -11 -8 3 -19 0
-25 -7 -17 -20 0 -28 25 -11 21 14 24 13 50 -18 15 -17 31 -31 36 -29 6 1 12
-7 15 -18 3 -11 9 -20 14 -20 5 0 9 -7 9 -16 0 -13 -8 -15 -41 -10 -27 4 -48
1 -63 -9 -16 -11 -36 -13 -69 -9 -54 8 -58 15 -21 39 22 14 28 15 35 4 5 -8 9
-9 9 -4 -1 6 -10 21 -21 34 -18 22 -21 23 -37 7 -24 -21 -45 -20 -66 3 -10 11
-25 16 -40 14 -13 -3 -27 0 -31 7 -10 17 2 25 19 11 11 -9 16 -6 25 20 14 41
-1 64 -29 47 -14 -9 -25 -9 -46 0 -32 15 -29 19 41 47 64 26 89 18 83 -29 -2
-16 2 -31 9 -33 20 -7 24 32 9 98 -9 35 -12 67 -8 70 14 12 74 29 84 23 6 -4
-3 -17 -18 -29 -27 -22 -27 -24 -10 -31 10 -4 27 -2 39 5 14 9 22 10 30 2 6
-6 16 -11 21 -11 6 0 5 4 -3 9 -10 6 -10 13 -2 29 8 15 8 21 -1 24 -19 7 1 28
27 28 13 0 26 4 29 8 8 13 -24 53 -37 46 -7 -3 -2 3 10 13 12 10 24 36 28 61
5 32 11 42 25 42 10 0 22 5 25 10 10 15 23 12 28 -7z m3444 -10 c-11 -11 -20
-13 -33 -5 -18 10 -17 11 6 20 32 12 46 4 27 -15z m-3940 1 c-3 -3 -12 -4 -19
-1 -8 3 -5 6 6 6 11 1 17 -2 13 -5z m-1163 -50 c4 -10 1 -14 -6 -12 -15 5 -23
28 -10 28 5 0 13 -7 16 -16z m4953 -21 c-3 -10 -5 -4 -5 12 0 17 2 24 5 18 2
-7 2 -21 0 -30z m193 13 c0 -2 -7 -6 -15 -10 -8 -3 -15 -1 -15 4 0 6 7 10 15
10 8 0 15 -2 15 -4z m-25 -66 c-7 -30 -1 -35 33 -31 6 1 12 -3 12 -9 0 -5 -7
-10 -15 -10 -8 0 -19 -8 -24 -19 -6 -10 -22 -22 -37 -25 -40 -10 -74 -36 -74
-57 0 -29 -17 -23 -23 8 -7 35 1 52 21 48 29 -4 72 27 72 53 0 19 27 71 38 72
2 0 1 -13 -3 -30z m193 -4 l4 -30 -26 25 c-32 30 -33 41 -3 37 16 -2 23 -11
25 -32z m108 -11 c14 -30 14 -38 3 -51 -12 -14 -11 -19 9 -32 28 -19 28 -28
-3 -48 -28 -18 -54 -7 -53 24 0 9 -2 45 -6 80 -5 57 -4 62 14 62 12 0 25 -13
36 -35z m154 15 c13 -24 9 -89 -5 -93 -5 -1 -11 10 -13 26 -4 32 -11 34 -40 7
-13 -12 -34 -20 -54 -19 -18 0 -27 3 -20 6 6 2 12 11 12 18 0 23 42 56 62 49
11 -3 20 1 24 10 8 22 21 20 34 -4z m-340 -60 c0 -16 -4 -30 -10 -30 -5 0 -10
3 -10 8 0 4 -3 17 -6 30 -5 16 -2 22 10 22 11 0 16 -9 16 -30z m-4250 5 c0 -8
-4 -15 -10 -15 -5 0 -7 7 -4 15 4 8 8 15 10 15 2 0 4 -7 4 -15z m4310 0 c0 -9
10 -15 23 -16 15 0 17 -2 7 -6 -8 -3 -18 -10 -21 -16 -4 -5 -14 -7 -23 -4 -21
8 -22 57 -1 57 8 0 15 -7 15 -15z m-3962 -13 c-10 -2 -18 -10 -18 -18 0 -8 -4
-14 -10 -14 -5 0 -10 5 -10 11 0 16 33 39 45 31 5 -4 2 -8 -7 -10z m-329 -107
c24 0 24 -25 -1 -34 -33 -12 -38 -6 -38 48 0 60 13 76 20 24 3 -24 10 -38 19
-38z m666 64 c10 -15 -1 -23 -20 -15 -9 3 -13 10 -10 16 8 13 22 13 30 -1z
m3485 -12 c0 -6 -14 -25 -30 -41 -21 -19 -29 -34 -25 -47 7 -20 1 -24 -52 -33
-32 -5 -33 -4 -33 28 0 30 4 35 28 41 16 3 44 19 63 35 38 32 49 36 49 17z
m120 -8 c0 -18 -2 -19 -15 -9 -15 12 -12 30 6 30 5 0 9 -10 9 -21z m-1277 -19
c-3 -11 -9 -20 -14 -20 -5 0 -9 9 -9 20 0 11 6 20 14 20 9 0 12 -7 9 -20z
m656 11 c12 -8 12 -12 2 -24 -10 -13 -7 -18 18 -30 26 -13 30 -13 35 0 9 21 8
23 -11 23 -15 0 -15 2 -3 14 9 8 39 15 70 16 97 4 120 1 120 -15 0 -8 5 -15
10 -15 6 0 10 7 10 15 0 8 7 15 15 15 11 0 15 -12 15 -48 0 -27 -3 -52 -7 -56
-11 -10 -12 -37 -2 -30 17 10 9 -19 -9 -35 -11 -9 -24 -26 -31 -38 -14 -27
-24 -29 -45 -8 -15 15 -51 21 -42 7 8 -14 -16 -106 -33 -125 -9 -9 -25 -26
-35 -37 -20 -20 -20 -20 16 -20 28 0 38 -5 43 -21 5 -14 10 -17 18 -10 7 5 23
11 37 13 15 2 30 14 38 31 22 45 33 21 27 -58 -3 -41 -1 -76 3 -79 11 -7 14
-168 3 -185 -7 -11 -14 -9 -34 12 -27 30 -67 36 -67 12 0 -9 8 -30 17 -48 9
-18 16 -35 15 -39 -4 -14 66 -9 71 5 2 6 4 1 4 -13 l1 -25 -162 3 c-201 3
-479 -10 -396 -19 32 -3 -20 -6 -120 -7 -100 -1 -169 2 -161 7 9 6 -2 11 -33
15 -25 4 -50 4 -56 1 -6 -4 -10 42 -10 133 0 76 -2 249 -5 383 -3 134 -3 238
1 232 8 -19 22 -16 29 6 8 27 84 46 100 24 10 -14 13 -14 27 1 18 17 33 22 23
7 -3 -5 -1 -12 4 -16 6 -3 13 -27 17 -53 4 -26 16 -67 26 -92 17 -39 21 -42
29 -27 13 23 2 74 -18 86 -10 5 -14 15 -10 25 4 10 10 15 15 12 4 -2 14 15 21
38 l13 44 191 1 c106 0 198 -3 206 -8z m908 -23 c-3 -7 -5 -2 -5 12 0 14 2 19
5 13 2 -7 2 -19 0 -25z m-7149 -13 c-3 -3 -9 2 -12 12 -6 14 -5 15 5 6 7 -7
10 -15 7 -18z m6809 3 c-3 -8 -6 -5 -6 6 -1 11 2 17 5 13 3 -3 4 -12 1 -19z
m-6727 -13 c0 -8 -4 -17 -10 -20 -6 -4 -10 5 -10 20 0 15 4 24 10 20 6 -3 10
-12 10 -20z m3188 -67 c2 -43 -1 -68 -8 -68 -5 0 -10 9 -10 20 0 22 -25 28
-33 8 -3 -7 -6 15 -6 50 l-1 63 28 -3 c26 -3 27 -5 30 -70z m3652 62 c0 -5
-15 -10 -32 -10 -25 0 -29 3 -18 10 20 13 50 13 50 0z m330 -41 c0 -6 -4 -7
-10 -4 -5 3 -10 11 -10 16 0 6 5 7 10 4 6 -3 10 -11 10 -16z m-4510 7 c0 -3
-4 -8 -10 -11 -5 -3 -10 -1 -10 4 0 6 5 11 10 11 6 0 10 -2 10 -4z m-170 -21
c0 -8 -4 -15 -10 -15 -5 0 -10 7 -10 15 0 8 5 15 10 15 6 0 10 -7 10 -15z
m-2503 -72 c-3 -10 -5 -2 -5 17 0 19 2 27 5 18 2 -10 2 -26 0 -35z m2503 37
c0 -5 -4 -10 -10 -10 -5 0 -10 5 -10 10 0 6 5 10 10 10 6 0 10 -4 10 -10z m70
0 c0 -5 -2 -10 -4 -10 -3 0 -8 5 -11 10 -3 6 -1 10 4 10 6 0 11 -4 11 -10z
m50 6 c0 -11 -19 -15 -25 -6 -3 5 1 10 9 10 9 0 16 -2 16 -4z m126 -18 c9 -15
-27 -41 -40 -28 -6 6 -5 15 4 25 15 18 26 19 36 3z m4258 -14 c15 -19 12 -103
-4 -155 -5 -15 -3 -33 3 -45 14 -23 11 -372 -3 -408 -5 -14 -19 -26 -32 -28
l-23 -3 -5 -436 -5 -436 -33 -28 c-33 -27 -34 -28 -125 -20 -79 6 -180 12
-272 14 -27 1 -31 18 -19 81 5 21 9 27 15 19 4 -7 3 -19 -2 -25 -7 -8 -6 -14
1 -19 5 -3 10 -1 10 5 0 10 33 27 55 28 6 0 9 -6 7 -15 -5 -23 16 -33 69 -33
l46 0 13 59 c7 33 9 64 5 70 -8 13 -46 4 -57 -13 -4 -6 -10 -7 -15 -3 -4 5 -2
11 4 15 6 4 12 16 14 27 2 11 14 24 27 30 29 13 28 23 -3 37 -17 8 -25 19 -25
36 0 24 -1 24 -17 9 -69 -65 -97 -96 -115 -129 -12 -21 -25 -38 -30 -38 -4 0
-8 120 -9 268 0 147 -2 307 -5 355 -5 94 3 122 39 137 l22 9 -23 0 c-13 1 -26
9 -30 20 -4 11 -5 156 -2 323 l5 303 50 6 c28 3 141 5 253 4 185 -2 204 -4
216 -21z m-4434 -14 c0 -5 -4 -10 -10 -10 -5 0 -10 5 -10 10 0 6 5 10 10 10 6
0 10 -4 10 -10z m4532 -5 c0 -5 -5 -11 -11 -13 -6 -2 -11 4 -11 13 0 9 5 15
11 13 6 -2 11 -8 11 -13z m-3914 -26 c4 -24 3 -24 -12 -4 -19 24 -20 38 -3 33
6 -3 13 -15 15 -29z m-3221 -36 c-3 -10 -5 -4 -5 12 0 17 2 24 5 18 2 -7 2
-21 0 -30z m-25 -54 c-6 -68 -22 -72 -22 -5 0 42 3 56 13 53 8 -2 11 -19 9
-48z m2748 36 c11 -13 8 -15 -20 -15 -28 0 -31 2 -20 15 7 8 16 15 20 15 4 0
13 -7 20 -15z m180 0 c11 -13 7 -15 -26 -15 -35 0 -37 1 -18 15 24 18 29 18
44 0z m-372 -23 c2 -15 -5 -25 -27 -36 -38 -20 -41 -20 -41 4 0 12 5 17 14 14
9 -3 16 4 20 21 8 30 30 29 34 -3z m-68 8 c0 -5 -4 -10 -10 -10 -5 0 -10 5
-10 10 0 6 5 10 10 10 6 0 10 -4 10 -10z m2076 -3 c8 -7 -8 -11 -38 -8 -9 1
-19 -3 -23 -9 -4 -6 6 -10 24 -10 17 0 31 -5 31 -11 0 -6 -9 -9 -20 -6 -11 3
-20 1 -20 -5 0 -5 -10 -8 -22 -6 -21 3 -23 -1 -20 -34 3 -36 1 -38 -28 -38
-16 0 -30 -4 -30 -10 0 -5 -9 -10 -20 -10 -17 0 -19 5 -13 33 3 17 10 40 15
50 7 13 5 17 -9 17 -17 1 -17 1 -1 11 10 5 35 9 55 7 28 -2 38 1 39 12 1 8 2
18 3 21 1 8 68 5 77 -4z m-478 -9 c-6 -18 -28 -21 -28 -4 0 9 7 16 16 16 9 0
14 -5 12 -12z m357 2 c-3 -5 -13 -10 -21 -10 -8 0 -14 5 -14 10 0 6 9 10 21
10 11 0 17 -4 14 -10z m238 3 c-7 -2 -21 -2 -30 0 -10 3 -4 5 12 5 17 0 24 -2
18 -5z m197 -29 c0 -8 -4 -12 -10 -9 -5 3 -10 10 -10 16 0 5 5 9 10 9 6 0 10
-7 10 -16z m1525 -14 c3 -5 1 -10 -4 -10 -6 0 -11 5 -11 10 0 6 2 10 4 10 3 0
8 -4 11 -10z m-3359 -17 c-5 -11 3 -26 24 -44 16 -15 30 -35 30 -43 0 -27 -20
-28 -41 -2 -14 17 -30 26 -50 26 -19 0 -29 5 -29 15 0 8 7 15 15 15 20 0 19
17 -2 28 -12 7 -24 5 -40 -5 -14 -9 -33 -13 -47 -9 -18 4 -28 1 -34 -11 -9
-14 -10 -14 -16 5 -4 12 -12 22 -17 22 -5 0 -9 5 -9 10 0 6 44 10 111 10 100
0 110 -2 105 -17z m245 -790 c0 -927 0 -908 17 -907 6 1 42 2 80 3 59 1 65 3
49 15 -10 8 -14 17 -9 20 6 3 8 15 5 26 -7 26 22 27 36 2 8 -13 12 -14 19 -4
7 10 13 7 25 -12 22 -33 21 -39 -3 -31 -14 5 -20 2 -20 -9 0 -10 9 -16 22 -16
17 0 19 -3 10 -12 -17 -17 -15 -25 11 -32 21 -6 21 -7 3 -21 -10 -8 -16 -21
-13 -29 3 -8 -1 -17 -9 -20 -8 -3 -14 -15 -14 -26 0 -26 -12 -26 -29 1 -8 13
-9 24 -3 28 19 12 24 51 9 66 -12 12 -16 12 -20 1 -4 -10 -25 -13 -80 -11 -40
1 -79 5 -85 9 -6 4 -13 -5 -16 -21 -2 -16 -3 186 0 447 2 261 4 670 4 908 0
237 2 432 5 432 3 0 6 -363 6 -807z m1250 747 c17 0 18 19 2 30 -15 10 -14 10
7 5 14 -4 41 -10 60 -13 29 -6 36 -12 38 -35 l3 -27 -65 0 c-57 0 -66 3 -66
18 0 10 -9 24 -20 32 -11 8 -20 20 -20 27 0 7 12 1 26 -12 15 -14 30 -25 35
-25z m-1771 9 c0 -10 -70 -17 -76 -8 -2 4 -2 14 1 21 5 12 13 13 40 4 19 -6
35 -14 35 -17z m887 -16 c-3 -10 -5 -2 -5 17 0 19 2 27 5 18 2 -10 2 -26 0
-35z m-3650 15 c-3 -8 -6 -5 -6 6 -1 11 2 17 5 13 3 -3 4 -12 1 -19z m3100
-10 c-3 -8 -6 -5 -6 6 -1 11 2 17 5 13 3 -3 4 -12 1 -19z m-434 -9 c-5 -19 -3
-21 20 -15 39 9 33 -10 -7 -25 -30 -11 -32 -13 -18 -30 8 -9 20 -15 27 -13 7
3 20 -7 29 -21 14 -21 20 -24 32 -14 8 6 14 8 14 4 0 -4 -8 -14 -17 -21 -15
-10 -18 -27 -16 -103 2 -88 2 -91 -25 -108 -42 -29 -74 -41 -113 -45 -35 -4
-36 -2 -45 37 -11 44 -7 250 5 315 1 2 8 -6 17 -18 13 -18 13 -26 3 -38 -8
-10 -9 -18 -2 -25 15 -15 76 -7 81 11 4 12 2 13 -9 3 -18 -18 -39 -16 -39 2 0
8 9 15 20 15 11 0 20 5 20 10 0 6 -11 10 -25 10 -22 0 -24 4 -23 35 1 27 5 35
17 32 9 -2 15 -9 14 -15 -2 -7 4 -12 13 -12 11 0 14 5 10 16 -7 17 0 34 14 34
4 0 6 -10 3 -21z m549 -56 c12 -25 5 -118 -11 -137 -11 -13 -1 -68 18 -104 24
-45 -23 -124 -49 -82 -8 13 -26 14 -122 5 -65 -6 -84 8 -50 36 18 14 22 28 22
81 0 59 11 88 32 88 4 0 8 -9 8 -19 0 -11 4 -23 10 -26 6 -4 4 -15 -5 -28 -10
-16 -12 -32 -7 -52 11 -42 61 -47 90 -11 11 15 25 26 32 26 9 0 11 10 5 38 -4
20 -8 53 -8 72 -2 30 -6 35 -27 36 -14 1 -29 2 -35 3 -16 2 8 18 39 25 23 6
27 4 23 -8 -7 -18 18 -42 28 -26 3 5 1 10 -4 10 -7 0 -10 29 -10 78 1 42 4 64
6 47 2 -16 9 -40 15 -52z m-318 51 c9 -3 16 -13 16 -22 0 -8 -3 -12 -7 -9 -3
4 -14 0 -24 -9 -25 -22 -40 -10 -26 21 13 27 17 28 41 19z m1546 -39 c0 -8 -7
-15 -15 -15 -8 0 -15 7 -15 15 0 8 7 15 15 15 8 0 15 -7 15 -15z m-153 -27
c-3 -7 -5 -2 -5 12 0 14 2 19 5 13 2 -7 2 -19 0 -25z m-1197 -17 c0 -2 -7 -13
-17 -23 -9 -11 -11 -18 -5 -18 7 0 12 -4 12 -10 0 -18 -16 -10 -29 14 -8 13
-10 29 -7 34 6 10 46 13 46 3z m557 -28 c-3 -10 -5 -4 -5 12 0 17 2 24 5 18 2
-7 2 -21 0 -30z m-3600 -20 c-3 -10 -5 -2 -5 17 0 19 2 27 5 18 2 -10 2 -26 0
-35z m4293 11 c0 -8 -4 -14 -10 -14 -5 0 -10 9 -10 21 0 11 5 17 10 14 6 -3
10 -13 10 -21z m-60 -4 c0 -5 -2 -10 -4 -10 -3 0 -8 5 -11 10 -3 6 -1 10 4 10
6 0 11 -4 11 -10z m-1330 -40 c0 -5 -4 -10 -10 -10 -5 0 -10 5 -10 10 0 6 5
10 10 10 6 0 10 -4 10 -10z m1894 -21 c-8 -14 -34 -11 -34 4 0 8 3 17 7 20 9
9 34 -13 27 -24z m-1587 -71 c-2 -18 -4 -4 -4 32 0 36 2 50 4 33 2 -18 2 -48
0 -65z m-1804 -83 c-37 -32 -43 -31 -43 9 0 37 21 62 45 52 12 -4 15 4 17 42
2 40 2 38 5 -16 4 -58 2 -64 -24 -87z m-1406 83 c-2 -13 -4 -5 -4 17 -1 22 1
32 4 23 2 -10 2 -28 0 -40z m3950 10 c-3 -8 -6 -5 -6 6 -1 11 2 17 5 13 3 -3
4 -12 1 -19z m-360 -171 c-2 -23 -3 -1 -3 48 0 50 1 68 3 42 2 -26 2 -67 0
-90z m85 76 c11 -9 18 -30 18 -50 0 -30 -2 -34 -21 -28 -13 4 -25 2 -29 -5
-12 -19 -40 -4 -40 20 0 28 27 80 42 80 6 0 20 -7 30 -17z m158 -23 c0 -5 -4
-10 -10 -10 -5 0 -10 5 -10 10 0 6 5 10 10 10 6 0 10 -4 10 -10z m-1357 -63
c-9 -16 -24 9 -17 28 7 18 8 18 14 -1 4 -10 5 -23 3 -27z m1467 6 c0 -24 -16
-48 -23 -36 -8 13 3 53 14 53 5 0 9 -8 9 -17z m1308 5 c20 -20 14 -48 -14 -58
-37 -14 -70 -12 -84 5 -7 9 -8 15 -2 15 6 0 9 8 8 18 -5 27 69 43 92 20z
m1035 5 c-29 -2 -77 -2 -105 0 -29 2 -6 3 52 3 58 0 81 -1 53 -3z m-1170 -54
c-10 -10 -70 -14 -133 -10 -42 3 -43 4 -15 11 17 4 52 8 79 9 37 1 47 4 43 15
-4 9 1 16 11 18 18 4 30 -28 15 -43z m-2633 -45 c0 -8 -4 -14 -10 -14 -5 0
-10 9 -10 21 0 11 5 17 10 14 6 -3 10 -13 10 -21z m1340 -10 c6 -28 4 -30 -22
-32 -27 -2 -77 24 -78 41 0 12 42 26 70 24 18 -2 26 -9 30 -33z m-3582 -3 c5
-2 1 -27 -7 -40 -8 -12 -12 -12 -25 -2 -14 12 -16 11 -16 -6 0 -11 -9 -29 -19
-40 -13 -13 -21 -39 -23 -69 -3 -48 -20 -64 -26 -24 -2 11 -8 20 -14 20 -6 0
-8 -13 -6 -31 4 -25 -1 -36 -29 -62 -36 -34 -41 -47 -18 -47 8 0 19 -8 24 -18
9 -17 46 -22 68 -9 14 9 23 -2 23 -31 0 -15 7 -26 19 -29 18 -5 17 -9 -17 -59
-35 -52 -38 -54 -80 -54 -36 0 -43 -3 -38 -16 3 -9 6 -21 6 -29 0 -7 10 -16
23 -19 20 -6 20 -7 5 -17 -10 -5 -18 -17 -18 -26 0 -11 8 -14 30 -11 36 5 50
-20 23 -40 -16 -11 -16 -14 -3 -22 13 -8 12 -10 -2 -10 -20 0 -22 -8 -9 -28 6
-11 13 -8 27 11 14 17 25 22 39 17 11 -4 23 -6 28 -3 4 2 7 1 7 -4 0 -14 -14
-29 -32 -36 -20 -7 -24 -32 -8 -42 8 -5 7 -11 0 -20 -12 -15 -90 -17 -90 -2 0
4 5 5 10 2 6 -3 10 1 10 10 0 10 -7 15 -17 13 -11 -2 -17 -11 -15 -21 2 -9 -2
-17 -8 -17 -7 0 -10 19 -9 49 2 38 7 51 21 54 18 5 35 33 25 43 -2 3 -25 7
-51 9 -46 5 -46 5 -47 -28 -4 -152 7 -202 45 -191 11 3 28 13 37 20 23 21 76
17 96 -5 9 -11 21 -17 26 -14 5 3 13 0 17 -7 6 -9 12 -9 29 -1 16 9 21 9 21
-1 0 -8 5 -6 11 5 5 9 21 17 34 17 14 0 25 5 25 10 0 6 7 10 15 10 22 0 18
-21 -5 -27 -24 -6 -26 -19 -3 -27 9 -4 25 2 38 14 12 11 26 20 32 20 6 0 13 8
15 18 4 15 13 17 44 14 21 -2 44 -9 51 -14 18 -14 89 20 102 50 13 28 -1 54
-25 45 -8 -3 -20 -3 -28 0 -12 5 -12 11 -3 31 6 13 15 22 19 20 5 -3 8 2 8 12
0 14 -7 16 -39 11 -45 -6 -80 9 -44 19 21 6 47 56 36 68 -6 5 65 11 107 8 8 0
22 4 32 9 15 8 20 5 28 -16 8 -22 15 -25 56 -25 25 0 61 7 80 16 58 28 66 17
64 -89 -3 -169 -1 -187 14 -203 14 -13 17 -13 28 6 7 11 19 20 27 20 8 0 23 7
33 17 11 9 18 11 18 5 0 -7 5 -12 10 -12 6 0 8 11 4 25 -5 22 -3 25 20 25 24
0 30 -8 27 -37 -1 -6 3 -14 9 -18 13 -8 13 -55 0 -55 -6 0 -13 7 -16 15 -7 18
-30 20 -37 3 -4 -10 -8 -10 -14 -2 -13 19 -49 26 -60 12 -6 -7 -13 -30 -17
-50 -5 -29 -10 -36 -23 -31 -14 6 -15 -9 -11 -141 l5 -147 -26 2 c-14 2 -38
-5 -53 -15 -16 -10 -35 -15 -47 -11 -10 3 -22 2 -25 -4 -4 -5 -21 -2 -43 9
-20 10 -43 16 -49 13 -8 -3 -11 2 -7 16 4 15 1 21 -10 21 -9 0 -17 -10 -19
-22 -2 -12 -9 -23 -15 -26 -10 -3 -11 8 -7 41 5 35 3 45 -10 50 -18 7 -22 27
-6 27 6 0 20 8 31 19 17 16 18 19 4 31 -19 16 -19 30 0 30 17 0 20 16 6 25 -5
3 -7 21 -4 40 5 34 -1 41 -32 35 -14 -2 -95 22 -95 29 0 3 -4 12 -9 20 -8 12
-15 11 -45 -10 -20 -13 -36 -29 -36 -34 0 -6 -9 -18 -20 -28 -11 -9 -20 -24
-20 -32 0 -8 -21 -36 -46 -60 -37 -37 -45 -50 -40 -70 4 -14 2 -25 -4 -25 -5
0 -10 5 -10 11 0 18 -43 -2 -72 -33 -16 -17 -28 -34 -28 -39 0 -5 -13 -9 -29
-9 -20 0 -32 -6 -36 -19 -7 -22 -35 -36 -35 -18 0 7 -7 -1 -15 -17 -8 -15 -15
-35 -15 -42 0 -17 -12 -18 -28 -2 -10 10 -14 8 -18 -10 -4 -12 -13 -22 -20
-22 -23 0 -36 50 -30 110 5 49 7 543 3 660 -2 38 2 47 21 55 25 11 28 32 7 59
-8 11 -16 36 -17 55 -1 28 -3 23 -8 -19 l-7 -55 -1 52 c-1 30 3 57 11 65 13
14 18 150 4 141 -5 -3 -5 12 -1 34 4 21 11 40 15 41 12 5 11 59 0 67 -13 8
-10 108 3 118 8 5 216 4 234 -2z m5252 -22 c0 -11 -4 -17 -10 -14 -5 3 -10 15
-10 26 0 11 5 17 10 14 6 -3 10 -15 10 -26z m-3018 -46 c-10 -28 -10 -28 -11
12 -1 28 2 36 10 28 8 -8 8 -19 1 -40z m622 24 c13 -21 -2 -50 -29 -55 -30 -6
-38 13 -20 47 17 34 31 36 49 8z m1641 4 c3 -5 1 -12 -5 -16 -5 -3 -10 1 -10
9 0 18 6 21 15 7z m530 -13 c6 1 32 3 58 6 45 4 49 2 60 -22 15 -37 17 -38 27
-22 7 11 10 3 10 -27 0 -47 -1 -48 -85 -102 -33 -21 -70 -52 -81 -68 -16 -21
-31 -29 -56 -31 -45 -3 -70 21 -39 38 16 8 21 20 21 55 0 37 -5 47 -32 68 -26
21 -35 23 -55 14 -25 -11 -39 -5 -28 13 4 7 20 10 36 8 16 -3 29 -1 29 4 0 4
-4 8 -8 8 -5 0 -14 11 -20 25 -13 28 1 44 22 26 10 -8 21 -8 42 -1 15 6 33 9
41 6 7 -3 13 -1 13 5 0 7 7 8 18 4 9 -4 22 -7 27 -7z m-2245 -24 c0 -8 -7 -14
-15 -14 -15 0 -21 21 -9 33 10 9 24 -2 24 -19z m862 9 c29 -6 46 -31 25 -38
-6 -2 -40 -6 -74 -9 -44 -4 -63 -2 -66 7 -7 22 5 37 29 37 13 0 24 5 24 11 0
7 7 8 18 4 9 -3 29 -9 44 -12z m-3642 -19 c0 -8 -4 -14 -9 -14 -11 0 -22 26
-14 34 9 9 23 -3 23 -20z m3350 -34 c0 -33 -4 -60 -9 -60 -8 0 -8 22 -2 103 0
9 3 17 6 17 3 0 5 -27 5 -60z m1860 50 c0 -5 -5 -10 -11 -10 -5 0 -7 5 -4 10
3 6 8 10 11 10 2 0 4 -4 4 -10z m-4539 -65 l-7 -50 -5 50 c-6 52 -2 73 11 58
4 -4 4 -30 1 -58z m1796 33 c-3 -8 -6 -5 -6 6 -1 11 2 17 5 13 3 -3 4 -12 1
-19z m-240 -35 c-3 -10 -5 -4 -5 12 0 17 2 24 5 18 2 -7 2 -21 0 -30z m2490 2
c2 -6 -9 -10 -24 -9 -15 0 -29 6 -31 13 -3 8 5 11 24 9 15 -2 29 -8 31 -13z
m-4737 -5 c0 -5 -4 -10 -10 -10 -5 0 -10 5 -10 10 0 6 5 10 10 10 6 0 10 -4
10 -10z m3567 -6 c2 -6 25 -15 51 -19 85 -13 20 -26 -105 -22 -108 3 -118 5
-119 23 0 10 1 22 3 26 7 14 164 6 170 -8z m148 -24 c3 -5 -1 -10 -10 -10 -9
0 -13 5 -10 10 3 6 8 10 10 10 2 0 7 -4 10 -10z m-1209 -11 c3 -6 2 -14 -4
-18 -5 -3 -12 -15 -15 -26 -2 -11 -4 -3 -4 18 0 37 9 47 23 26z m2151 -11 c-3
-8 -6 -5 -6 6 -1 11 2 17 5 13 3 -3 4 -12 1 -19z m-2410 -10 c-3 -8 -6 -5 -6
6 -1 11 2 17 5 13 3 -3 4 -12 1 -19z m193 -11 c0 -10 -4 -16 -9 -13 -4 3 -14
-7 -20 -21 -10 -22 -14 -24 -22 -12 -10 16 -12 53 -3 62 15 14 54 2 54 -16z
m-1744 -74 c-4 -54 -25 -83 -27 -37 -2 44 1 87 8 109 6 19 6 18 14 -4 5 -12 7
-43 5 -68z m3911 65 c-3 -8 -6 -5 -6 6 -1 11 2 17 5 13 3 -3 4 -12 1 -19z
m-2263 -4 c3 -8 2 -12 -4 -9 -6 3 -10 10 -10 16 0 14 7 11 14 -7z m-44 -33 c0
-6 -4 -13 -10 -16 -5 -3 -10 1 -10 9 0 9 5 16 10 16 6 0 10 -4 10 -9z m3342
-26 c-2 -5 -14 -9 -27 -7 -12 2 -26 -2 -30 -8 -5 -8 -11 -8 -21 1 -7 6 -11 15
-8 21 8 12 90 6 86 -7z m-995 -27 c-3 -8 -6 -5 -6 6 -1 11 2 17 5 13 3 -3 4
-12 1 -19z m823 7 c7 -8 9 -15 6 -15 -4 0 -14 7 -22 15 -9 8 -11 15 -6 15 5 0
15 -7 22 -15z m-2590 -29 c0 -8 -4 -17 -9 -21 -12 -7 -24 12 -16 25 9 15 25
12 25 -4z m-393 -28 c-3 -7 -5 -2 -5 12 0 14 2 19 5 13 2 -7 2 -19 0 -25z
m-1889 10 c26 -26 7 -78 -29 -78 -31 0 -40 24 -23 59 16 33 32 39 52 19z
m4357 -19 c3 -4 1 -11 -5 -14 -11 -7 -40 11 -40 25 0 10 38 1 45 -11z m327
-232 l-4 -244 69 -7 c37 -4 244 -9 458 -12 215 -3 396 -7 403 -9 9 -3 12 -72
12 -297 0 -161 -4 -299 -9 -306 -12 -19 -944 -13 -963 6 -17 17 -13 1079 4
1099 30 36 33 12 30 -230z m-4595 192 c-3 -12 0 -22 9 -26 11 -4 12 -9 3 -19
-15 -19 -30 -8 -25 19 3 12 5 28 5 35 1 6 4 12 7 12 4 0 4 -9 1 -21z m126 -35
c-12 -32 -38 -6 -27 28 6 20 7 21 20 4 7 -10 10 -24 7 -32z m-43 21 c0 -8 -4
-15 -10 -15 -5 0 -10 7 -10 15 0 8 5 15 10 15 6 0 10 -7 10 -15z m4597 -7 c-3
-8 -6 -5 -6 6 -1 11 2 17 5 13 3 -3 4 -12 1 -19z m-730 -40 c-3 -8 -6 -5 -6 6
-1 11 2 17 5 13 3 -3 4 -12 1 -19z m-3763 -7 c4 -5 3 -17 0 -26 -5 -13 -8 -14
-15 -3 -5 7 -9 19 -9 26 0 14 16 16 24 3z m-66 -45 c1 -19 -3 -38 -8 -41 -10
-6 -14 7 -10 39 1 13 -3 17 -14 13 -20 -8 -20 -3 0 17 21 22 30 14 32 -28z
m-90 -6 c4 -21 2 -22 -12 -7 -19 19 -21 40 -3 35 6 -3 14 -15 15 -28z m299 3
c13 -16 9 -33 -8 -33 -5 0 -9 8 -9 18 0 13 -2 14 -9 3 -7 -11 -11 -10 -20 7
-6 11 -11 24 -11 27 0 11 45 -6 57 -22z m-150 -25 c-3 -8 -6 -5 -6 6 -1 11 2
17 5 13 3 -3 4 -12 1 -19z m296 15 c-7 -2 -21 -2 -30 0 -10 3 -4 5 12 5 17 0
24 -2 18 -5z m-323 -13 c0 -5 -4 -10 -10 -10 -5 0 -10 5 -10 10 0 6 5 10 10
10 6 0 10 -4 10 -10z m369 -5 c27 -16 5 -25 -60 -25 -67 0 -115 13 -105 28 5
9 151 6 165 -3z m3446 -14 c3 -5 1 -12 -5 -16 -5 -3 -10 1 -10 9 0 18 6 21 15
7z m-2428 -23 c-3 -8 -6 -5 -6 6 -1 11 2 17 5 13 3 -3 4 -12 1 -19z m-2257
-28 c0 -5 -4 -10 -10 -10 -5 0 -10 5 -10 10 0 6 5 10 10 10 6 0 10 -4 10 -10z
m113 -3 c3 -8 -9 -13 -39 -14 -41 -1 -53 5 -37 20 11 12 71 7 76 -6z m135 -25
c2 -7 -8 -12 -25 -12 -64 0 -100 25 -45 32 33 4 65 -5 70 -20z m4442 -25 c0
-12 -5 -29 -10 -37 -7 -11 -10 -3 -10 28 0 26 4 41 10 37 6 -3 10 -16 10 -28z
m-4494 -47 c8 0 14 7 14 15 0 22 13 19 45 -10 19 -19 30 -23 39 -16 7 6 16 8
19 4 13 -12 7 -23 -13 -23 -13 0 -24 -10 -30 -25 -5 -14 -16 -25 -25 -25 -8 0
-15 -9 -15 -19 0 -25 -17 -36 -34 -22 -7 6 -31 13 -52 15 -22 2 -47 7 -56 11
-11 4 -24 1 -33 -9 -18 -18 -45 -21 -45 -6 0 5 11 12 24 16 26 6 41 30 26 39
-15 9 -12 61 4 74 7 6 21 9 30 5 9 -4 16 -1 16 6 0 8 13 4 36 -9 19 -12 42
-21 50 -21z m1037 17 c3 -8 1 -20 -4 -28 -6 -10 -9 -7 -9 14 0 29 5 35 13 14z
m-163 -32 c0 -8 -9 -17 -20 -20 -11 -3 -20 -15 -20 -25 0 -10 -7 -26 -16 -34
-8 -9 -13 -20 -10 -24 11 -18 -18 -39 -44 -32 l-25 7 26 11 c34 13 41 34 23
61 -15 20 -14 22 16 27 20 5 30 12 29 23 -2 27 0 29 21 24 11 -3 20 -11 20
-18z m5370 15 c0 -5 -4 -10 -9 -10 -6 0 -13 5 -16 10 -3 6 1 10 9 10 9 0 16
-4 16 -10z m-5440 -15 c0 -19 -11 -19 -36 0 -18 14 -18 14 9 15 17 0 27 -5 27
-15z m-1153 -52 c-3 -10 -5 -2 -5 17 0 19 2 27 5 18 2 -10 2 -26 0 -35z m183
23 c0 -3 -4 -8 -10 -11 -5 -3 -10 -1 -10 4 0 6 5 11 10 11 6 0 10 -2 10 -4z
m6237 -58 c-2 -13 -4 -3 -4 22 0 25 2 35 4 23 2 -13 2 -33 0 -45z m-5037 -4
c0 -28 -34 -34 -44 -8 -10 25 -7 32 12 37 25 5 32 -1 32 -29z m1047 -71 c-2
-21 -4 -4 -4 37 0 41 2 58 4 38 2 -21 2 -55 0 -75z m-997 71 c0 -8 -4 -12 -10
-9 -5 3 -10 13 -10 21 0 8 5 12 10 9 6 -3 10 -13 10 -21z m109 -276 c1 -56 -3
-99 -9 -103 -6 -4 -8 -11 -5 -16 4 -5 2 -9 -2 -9 -5 0 -16 13 -26 29 -19 32
-68 47 -118 36 l-30 -7 4 131 c3 73 8 135 11 139 4 3 15 1 24 -5 12 -8 16 -22
14 -52 -2 -24 1 -41 7 -41 6 0 11 20 11 47 0 29 6 53 17 65 26 29 43 22 43
-16 0 -36 14 -55 25 -35 4 5 10 38 13 72 l7 62 6 -100 c4 -55 7 -144 8 -197z
m1558 260 c-3 -7 -5 -2 -5 12 0 14 2 19 5 13 2 -7 2 -19 0 -25z m-1727 -38 c0
-5 -2 -10 -4 -10 -3 0 -8 5 -11 10 -3 6 -1 10 4 10 6 0 11 -4 11 -10z m5430
-5 c0 -8 -7 -15 -15 -15 -16 0 -20 12 -8 23 11 12 23 8 23 -8z m-5464 -42
c-10 -10 -19 5 -10 18 6 11 8 11 12 0 2 -7 1 -15 -2 -18z m919 7 c3 -5 1 -10
-4 -10 -6 0 -11 5 -11 10 0 6 2 10 4 10 3 0 8 -4 11 -10z m865 -45 c-10 -12
-10 -19 1 -32 20 -24 20 -346 0 -338 -7 3 -19 1 -26 -5 -7 -6 -19 -9 -26 -8
-7 2 -15 -10 -19 -27 -6 -33 -33 -41 -38 -11 -2 10 -13 28 -23 39 -16 18 -19
18 -19 4 0 -9 6 -20 13 -24 37 -22 26 -62 -16 -63 -14 0 -15 3 -5 19 9 15 9
25 0 46 -20 44 -15 72 16 87 18 9 28 22 30 42 3 24 7 28 31 24 l28 -4 -9 50
c-5 28 -14 55 -19 60 -17 18 -10 39 11 33 31 -8 35 11 5 25 -20 9 -25 17 -21
32 3 12 6 24 6 29 0 4 8 8 18 8 16 1 16 2 0 6 -10 2 -19 9 -19 14 -6 31 -3 34
29 31 21 -2 32 1 32 9 0 8 7 3 16 -9 12 -18 13 -26 4 -37z m145 46 c3 -5 1
-12 -5 -16 -5 -3 -10 1 -10 9 0 18 6 21 15 7z m-1026 -41 c6 0 14 -6 17 -14 4
-10 13 -12 34 -6 29 8 40 5 40 -13 0 -5 -9 -7 -20 -4 -13 3 -20 0 -20 -9 0 -8
-4 -14 -10 -14 -5 0 -10 -7 -10 -15 0 -11 -7 -14 -25 -9 -19 5 -25 2 -25 -11
0 -9 -5 -26 -12 -38 -11 -21 -12 -21 -19 13 -4 19 -4 39 2 44 15 16 11 56 -6
56 -20 0 -19 9 3 31 14 14 19 15 28 3 6 -8 16 -14 23 -14z m-139 -16 c0 -23
-14 -32 -24 -16 -8 13 5 52 15 46 5 -3 9 -16 9 -30z m-910 16 c0 -5 -8 -25
-17 -44 -19 -38 -38 -49 -28 -16 6 18 4 19 -19 10 -30 -11 -34 -1 -7 22 39 33
71 46 71 28z m5607 -12 c-3 -8 -6 -5 -6 6 -1 11 2 17 5 13 3 -3 4 -12 1 -19z
m-5537 3 c0 -6 -4 -13 -10 -16 -5 -3 -10 1 -10 9 0 9 5 16 10 16 6 0 10 -4 10
-9z m1738 -37 c-2 -23 -9 -30 -31 -32 -26 -3 -28 -1 -22 20 10 33 37 60 48 49
5 -5 7 -21 5 -37z m-3081 -11 c-3 -10 -5 -4 -5 12 0 17 2 24 5 18 2 -7 2 -21
0 -30z m2510 -60 c-2 -21 -4 -6 -4 32 0 39 2 55 4 38 2 -18 2 -50 0 -70z
m-1500 50 c-3 -10 -5 -4 -5 12 0 17 2 24 5 18 2 -7 2 -21 0 -30z m280 5 c-3
-8 -6 -5 -6 6 -1 11 2 17 5 13 3 -3 4 -12 1 -19z m5635 0 c-7 -7 -12 -8 -12
-2 0 14 12 26 19 19 2 -3 -1 -11 -7 -17z m-5769 -5 c-7 -2 -19 -2 -25 0 -7 3
-2 5 12 5 14 0 19 -2 13 -5z m47 -13 c0 -5 -4 -10 -10 -10 -5 0 -10 5 -10 10
0 6 5 10 10 10 6 0 10 -4 10 -10z m934 -5 c-4 -8 -10 -15 -15 -15 -5 0 -9 7
-9 15 0 8 7 15 15 15 9 0 12 -6 9 -15z m1226 0 c0 -8 -7 -15 -15 -15 -8 0 -15
7 -15 15 0 8 7 15 15 15 8 0 15 -7 15 -15z m-2090 -2 c0 -5 -5 -15 -10 -23 -8
-12 -10 -11 -10 8 0 12 5 22 10 22 6 0 10 -3 10 -7z m-237 -28 c-7 -21 -13
-19 -13 6 0 11 4 18 10 14 5 -3 7 -12 3 -20z m101 -27 c8 -6 7 -11 -3 -17 -8
-5 -12 -18 -8 -30 4 -16 1 -20 -13 -18 -20 3 -50 31 -50 46 0 8 7 7 20 -1 26
-16 39 0 34 40 -2 18 -1 20 3 7 3 -11 10 -23 17 -27z m106 2 c0 -5 -5 -10 -11
-10 -5 0 -7 5 -4 10 3 6 8 10 11 10 2 0 4 -4 4 -10z m1126 -22 c-10 -6 -16
-22 -16 -45 0 -36 -20 -62 -50 -63 -11 0 -15 12 -16 49 0 41 3 51 20 60 42 20
99 20 62 -1z m-266 -10 c0 -19 -2 -20 -10 -8 -13 19 -13 30 0 30 6 0 10 -10
10 -22z m65 12 c-3 -6 4 -10 17 -10 38 0 68 -11 68 -25 0 -10 -9 -11 -36 -5
-20 5 -43 6 -50 3 -10 -4 -14 3 -14 21 0 14 5 26 11 26 5 0 7 -4 4 -10z m255
-4 c0 -3 -4 -8 -10 -11 -5 -3 -10 -1 -10 4 0 6 5 11 10 11 6 0 10 -2 10 -4z
m1154 -19 c-3 -9 -12 -13 -20 -10 -19 7 -18 21 4 25 22 5 24 4 16 -15z m3486
9 c0 -8 -6 -17 -12 -19 -10 -4 -9 -8 2 -16 15 -11 13 -12 -21 -15 -6 -1 -13
14 -14 32 -2 28 0 32 21 32 14 0 24 -6 24 -14z m-6038 -46 c-3 -23 0 -30 12
-30 9 0 16 5 16 11 0 5 5 7 10 4 18 -11 10 -33 -15 -39 -14 -4 -25 -14 -26
-24 -2 -35 -17 33 -18 82 -1 39 2 46 12 37 8 -6 12 -23 9 -41z m1118 30 c0
-11 -4 -20 -9 -20 -14 0 -23 18 -16 30 10 17 25 11 25 -10z m2990 10 c0 -5 -2
-10 -4 -10 -3 0 -8 5 -11 10 -3 6 -1 10 4 10 6 0 11 -4 11 -10z m-4690 -20 c0
-5 -7 -10 -15 -10 -8 0 -15 5 -15 10 0 6 7 10 15 10 8 0 15 -4 15 -10z m805
-10 c3 -5 1 -10 -4 -10 -6 0 -11 5 -11 10 0 6 2 10 4 10 3 0 8 -4 11 -10z
m309 -35 c20 -19 26 -33 26 -68 0 -37 -7 -53 -40 -95 -22 -27 -40 -55 -40 -61
0 -20 -15 -11 -33 19 -10 16 -24 35 -31 43 -22 22 -46 74 -46 100 0 14 13 39
29 56 38 40 95 43 135 6z m2036 -22 c0 -25 -3 -43 -7 -39 -10 10 -11 86 -1 86
4 0 8 -21 8 -47z m-235 14 c-8 -30 16 -51 46 -42 19 6 21 4 15 -18 -6 -27 16
-57 29 -37 10 16 35 12 35 -5 0 -9 6 -26 14 -38 8 -12 17 -41 20 -65 3 -23 8
-47 11 -52 3 -6 0 -10 -8 -10 -8 0 -17 7 -21 15 -7 19 -21 19 -41 -1 -10 -11
-20 -13 -28 -6 -7 5 -42 8 -78 6 l-67 -3 -4 87 c-3 48 0 95 4 105 6 12 5 23
-2 32 -16 19 -4 35 25 35 13 0 27 5 30 10 12 19 25 10 20 -13z m-1185 -8 c0
-5 -4 -9 -10 -9 -5 0 -10 7 -10 16 0 8 5 12 10 9 6 -3 10 -10 10 -16z m-1823
-111 c-2 -18 -4 -6 -4 27 0 33 2 48 4 33 2 -15 2 -42 0 -60z m146 40 c17 -2
22 -10 22 -33 0 -25 -4 -30 -27 -33 -28 -3 -28 -2 -27 50 1 29 3 45 6 36 2 -9
14 -18 26 -20z m435 -20 c-1 -36 -2 -43 -5 -20 -3 24 -9 32 -24 32 -23 0 -27
-46 -4 -53 11 -4 10 -4 -2 -3 -13 1 -18 10 -18 31 0 23 5 31 23 33 12 2 22 10
22 18 0 8 2 14 5 14 3 0 4 -24 3 -52z m-173 -8 c0 -42 -12 -42 -15 0 -3 38 -1
54 7 46 4 -4 8 -25 8 -46z m418 1 c1 -23 -1 -41 -4 -41 -8 0 -16 63 -11 80 7
20 14 3 15 -39z m-859 21 c3 -5 -5 -8 -17 -8 -16 1 -22 -5 -22 -19 0 -14 6
-20 23 -19 14 0 19 -3 13 -9 -25 -25 -61 12 -47 49 6 15 41 19 50 6z m92 -52
c9 0 14 11 14 30 0 17 5 30 10 30 6 0 10 -16 10 -35 0 -32 -2 -35 -30 -35 -28
0 -30 2 -28 38 1 36 1 36 5 5 3 -20 10 -33 19 -33z m232 38 c2 -12 -5 -18 -25
-20 l-28 -4 25 -12 25 -12 -25 3 c-25 2 -37 25 -26 53 8 20 50 14 54 -8z m72
13 c0 -5 -9 -7 -20 -4 -29 8 -25 -6 6 -17 14 -6 24 -16 21 -23 -5 -16 -36 -22
-50 -8 -7 7 -3 8 12 4 12 -3 21 -1 21 6 0 6 -6 11 -14 11 -18 0 -29 16 -21 30
8 12 45 13 45 1z m106 -51 c9 0 14 11 14 30 0 17 5 30 10 30 6 0 10 -16 10
-35 0 -32 -2 -35 -30 -35 -28 0 -30 2 -28 38 1 36 1 36 5 5 3 -20 10 -33 19
-33z m151 8 c-2 -13 -4 -5 -4 17 -1 22 1 32 4 23 2 -10 2 -28 0 -40z m81 14
c3 -31 2 -33 -25 -30 -29 3 -47 38 -19 38 8 0 18 5 22 12 5 8 0 9 -14 6 -13
-4 -20 -2 -16 4 3 5 16 8 27 6 17 -2 23 -11 25 -36z m80 1 l-1 -38 -4 33 c-5
42 -35 40 -44 -3 -6 -29 -7 -29 -8 8 -1 35 1 37 29 37 28 0 30 -2 28 -37z
m135 23 c7 -19 -1 -26 -32 -26 -28 0 -19 -15 14 -23 16 -5 15 -5 -4 -4 -32 3
-49 30 -32 51 17 20 47 21 54 2z m47 4 l-25 -7 28 -12 c16 -6 27 -17 24 -24
-5 -16 -36 -22 -49 -9 -6 6 0 8 18 4 19 -3 25 -1 20 7 -4 6 -13 11 -21 11 -8
0 -17 5 -20 10 -10 16 4 30 28 29 20 -1 20 -2 -3 -9z m848 -2 c-6 -18 -28 -21
-28 -4 0 9 7 16 16 16 9 0 14 -5 12 -12z m1439 -30 c-3 -7 -5 -2 -5 12 0 14 2
19 5 13 2 -7 2 -19 0 -25z m-2197 -18 c0 -5 -2 -10 -4 -10 -3 0 -8 5 -11 10
-3 6 -1 10 4 10 6 0 11 -4 11 -10z m-424 -32 c3 -3 8 -22 11 -42 l6 -36 -143
0 c-124 0 -141 2 -130 15 6 8 9 18 7 22 -6 10 13 38 30 44 18 6 212 3 219 -3z
m51 -38 c-1 -23 -4 -34 -9 -27 -11 17 -10 67 1 67 6 0 9 -18 8 -40z m-997 0
c0 -16 -4 -30 -10 -30 -11 0 -14 43 -3 53 11 12 13 8 13 -23z m1364 24 c19 -7
22 -48 4 -41 -7 2 -13 8 -13 13 0 5 -4 15 -8 22 -9 14 -6 15 17 6z m180 -14
c31 -11 34 -30 7 -30 -11 0 -23 -5 -26 -10 -4 -6 -12 -5 -21 5 -13 12 -13 17
-2 29 16 18 12 18 42 6z m-1594 -16 c0 -8 -5 -12 -10 -9 -6 4 -8 11 -5 16 9
14 15 11 15 -7z m1479 -23 c-15 -5 -22 6 -14 19 6 9 10 9 16 -1 5 -8 4 -15 -2
-18z m-1174 -1 c3 -6 -4 -10 -17 -10 -18 0 -20 2 -8 10 19 12 18 12 25 0z
m278 -7 c-13 -2 -35 -2 -50 0 -16 2 -5 4 22 4 28 0 40 -2 28 -4z m682 -3 c-3
-5 -11 -10 -16 -10 -6 0 -7 5 -4 10 3 6 11 10 16 10 6 0 7 -4 4 -10z m395 0
c11 -7 4 -10 -25 -10 -29 0 -36 3 -25 10 8 5 20 10 25 10 6 0 17 -5 25 -10z
m-247 -7 c-7 -2 -21 -2 -30 0 -10 3 -4 5 12 5 17 0 24 -2 18 -5z m3694 1 c-3
-3 -12 -4 -19 -1 -8 3 -5 6 6 6 11 1 17 -2 13 -5z m-4204 -11 c-7 -2 -19 -2
-25 0 -7 3 -2 5 12 5 14 0 19 -2 13 -5z m2044 1 c-3 -3 -12 -4 -19 -1 -8 3 -5
6 6 6 11 1 17 -2 13 -5z m186 -1 c-18 -2 -48 -2 -65 0 -18 2 -4 4 32 4 36 0
50 -2 33 -4z m70 0 c-7 -2 -19 -2 -25 0 -7 3 -2 5 12 5 14 0 19 -2 13 -5z
m-1006 -9 c-3 -3 -12 -4 -19 -1 -8 3 -5 6 6 6 11 1 17 -2 13 -5z m-1433 -19
c11 -8 17 -17 14 -21 -8 -8 -48 14 -48 26 0 14 12 12 34 -5z m276 5 c0 -5 -7
-10 -15 -10 -8 0 -15 5 -15 10 0 6 7 10 15 10 8 0 15 -4 15 -10z m360 -8 c0
-34 21 -42 110 -42 l87 0 11 -36 c17 -56 -4 -88 -26 -40 -7 17 -7 27 1 35 18
18 -1 25 -21 8 -10 -10 -23 -17 -28 -17 -5 0 -20 -18 -34 -40 -27 -44 -48 -50
-75 -20 -10 11 -27 20 -38 20 -13 0 -17 5 -14 14 4 10 1 13 -9 9 -8 -3 -21 0
-29 7 -8 7 -20 8 -27 4 -7 -5 -25 -9 -39 -10 -24 -1 -25 1 -25 55 l1 56 58 2
c32 1 61 4 64 7 13 13 33 5 33 -12z m3297 11 c-20 -2 -52 -2 -70 0 -17 2 0 4
38 4 39 0 53 -2 32 -4z m2256 0 c-7 -2 -21 -2 -30 0 -10 3 -4 5 12 5 17 0 24
-2 18 -5z m-440 -10 c-7 -2 -21 -2 -30 0 -10 3 -4 5 12 5 17 0 24 -2 18 -5z
m-5518 -61 c-11 -11 -22 11 -17 35 l5 28 8 -29 c5 -17 7 -32 4 -34z m228 38
c-6 -22 -18 -26 -28 -10 -8 13 3 30 20 30 8 0 11 -7 8 -20z m2044 -32 c-3 -8
-6 -5 -6 6 -1 11 2 17 5 13 3 -3 4 -12 1 -19z m191 5 c-4 -24 29 -29 53 -7 23
20 34 12 34 -24 0 -19 5 -27 18 -26 9 0 33 1 52 2 28 2 35 6 35 22 0 16 -7 20
-31 20 -16 0 -28 4 -25 8 3 5 27 8 53 8 46 -1 48 -2 46 -28 -1 -19 3 -28 13
-28 18 0 18 -33 -1 -70 -18 -35 -21 -36 -43 -14 -11 11 -17 13 -20 5 -2 -6
-17 -18 -33 -26 -19 -10 -29 -23 -29 -38 -1 -28 -53 -80 -77 -75 -24 4 -28 33
-9 73 25 51 21 58 -22 51 l-38 -6 -13 60 c-14 64 -10 90 14 90 8 0 15 5 15 10
0 6 2 10 5 10 3 0 5 -8 3 -17z m-81 -9 c-3 -3 -12 -4 -19 -1 -8 3 -5 6 6 6 11
1 17 -2 13 -5z m-1807 -64 c0 -13 -5 -18 -15 -14 -16 7 -19 17 -8 27 12 13 23
7 23 -13z m1807 14 c-3 -3 -12 -4 -19 -1 -8 3 -5 6 6 6 11 1 17 -2 13 -5z
m-1837 -86 c0 -5 -7 -8 -15 -8 -17 0 -18 2 -9 25 5 13 8 14 15 3 5 -7 9 -16 9
-20z m5679 -14 c-22 -24 -23 -27 -7 -38 15 -11 13 -14 -18 -25 -19 -7 -43 -9
-55 -6 -11 4 -25 2 -32 -3 -7 -5 -31 -10 -54 -9 -35 0 -43 3 -43 18 0 16 6 18
44 13 41 -6 44 -5 39 14 -3 15 1 22 19 27 12 4 30 13 38 20 13 12 78 24 89 18
3 -2 -6 -15 -20 -29z m-273 -21 c-7 -17 -9 -16 -27 6 -18 22 -19 22 -19 3 0
-12 -4 -23 -9 -26 -16 -10 1 38 17 52 21 16 48 -8 38 -35z m-5346 -17 c0 -3
-4 -8 -10 -11 -5 -3 -10 -1 -10 4 0 6 5 11 10 11 6 0 10 -2 10 -4z m5386 -54
c-8 -14 -45 -22 -52 -11 -3 5 4 9 15 9 11 0 23 5 26 11 4 6 9 8 12 5 3 -2 2
-9 -1 -14z m-5459 0 c-14 -3 -16 -7 -6 -18 9 -11 8 -14 -8 -14 -10 0 -25 6
-32 13 -10 10 -12 7 -9 -12 1 -13 -3 -26 -9 -28 -9 -3 -13 6 -13 25 0 37 1 37
52 38 24 0 35 -1 25 -4z m2303 -2 c0 -5 -8 -10 -17 -10 -15 0 -16 2 -3 10 19
12 20 12 20 0z m1830 -31 c0 -5 -4 -9 -10 -9 -5 0 -10 7 -10 16 0 8 5 12 10 9
6 -3 10 -10 10 -16z m1205 -9 c3 -6 -6 -15 -21 -20 -15 -6 -33 -18 -40 -28
-10 -14 -15 -15 -26 -4 -17 17 0 44 32 49 13 2 26 6 29 8 7 8 19 6 26 -5z
m-3175 -4 c0 -3 -4 -8 -10 -11 -5 -3 -10 -1 -10 4 0 6 5 11 10 11 6 0 10 -2
10 -4z m3230 0 c0 -2 -7 -9 -15 -16 -12 -10 -15 -10 -15 4 0 9 7 16 15 16 8 0
15 -2 15 -4z m70 -12 c0 -8 -4 -12 -10 -9 -5 3 -10 10 -10 16 0 5 5 9 10 9 6
0 10 -7 10 -16z m-5540 -29 c0 -8 -4 -15 -10 -15 -5 0 -10 7 -10 15 0 8 5 15
10 15 6 0 10 -7 10 -15z m135 -5 c3 -5 -3 -10 -14 -10 -12 0 -21 5 -21 10 0 6
6 10 14 10 8 0 18 -4 21 -10z"/>
<path d="M1812 6715 c0 -16 2 -22 5 -12 2 9 2 23 0 30 -3 6 -5 -1 -5 -18z"/>
<path d="M350 6989 c0 -4 10 -15 22 -23 17 -12 19 -19 11 -27 -12 -12 -9 -27
10 -67 8 -18 7 -26 -5 -38 -20 -20 -38 -11 -31 16 6 23 -12 27 -21 5 -3 -8 -9
-15 -13 -15 -13 0 -36 59 -29 75 3 10 -1 15 -14 15 -13 0 -17 -5 -14 -14 3 -8
-2 -28 -10 -45 -10 -19 -12 -32 -6 -36 6 -3 10 -17 10 -30 0 -53 24 -73 40
-32 9 21 9 21 9 -4 1 -19 8 -28 23 -32 24 -7 39 8 31 29 -3 8 6 19 21 26 34
15 51 -1 59 -55 4 -28 2 -40 -9 -44 -21 -8 -17 -23 6 -23 26 0 70 21 70 33 0
6 -14 22 -32 37 -36 30 -34 55 7 70 26 10 33 34 14 46 -6 3 -8 17 -5 30 8 30
-14 33 -32 4 -10 -17 -16 -19 -33 -9 -17 9 -20 17 -15 41 3 16 2 38 -4 48 -9
18 -60 34 -60 19z m105 -150 c10 -15 -1 -23 -20 -15 -9 3 -13 10 -10 16 8 13
22 13 30 -1z"/>
<path d="M445 6991 c-3 -5 -1 -12 4 -15 13 -8 42 4 35 15 -7 12 -31 12 -39 0z"/>
<path d="M251 6971 c-10 -7 -10 -10 -1 -16 6 -4 16 -3 22 3 13 13 -4 23 -21
13z"/>
<path d="M324 6955 c11 -8 27 -15 35 -15 11 0 10 4 -5 15 -10 8 -26 14 -34 14
-11 0 -10 -3 4 -14z"/>
<path d="M714 6944 c3 -9 6 -30 6 -47 0 -23 3 -28 11 -20 14 14 3 83 -13 83
-5 0 -7 -7 -4 -16z"/>
<path d="M536 6849 c-13 -16 -16 -27 -9 -43 10 -20 10 -20 23 4 7 14 17 28 23
31 10 7 1 29 -11 29 -4 0 -16 -10 -26 -21z"/>
<path d="M390 6755 c-10 -12 -10 -15 4 -15 9 0 16 7 16 15 0 8 -2 15 -4 15 -2
0 -9 -7 -16 -15z"/>
<path d="M635 6720 c-3 -5 -1 -10 4 -10 6 0 11 5 11 10 0 6 -2 10 -4 10 -3 0
-8 -4 -11 -10z"/>
<path d="M4564 6905 c-3 -8 -4 -20 -2 -27 3 -7 7 -1 10 15 6 29 1 36 -8 12z"/>
<path d="M4440 6856 c0 -14 5 -28 11 -31 13 -9 15 -7 23 28 5 23 3 27 -14 27
-15 0 -20 -7 -20 -24z"/>
<path d="M4655 6760 c-3 -5 1 -10 10 -10 9 0 13 5 10 10 -3 6 -8 10 -10 10 -2
0 -7 -4 -10 -10z"/>
<path d="M4565 6710 c-3 -11 -13 -20 -21 -20 -8 0 -14 -5 -14 -10 0 -12 48 -3
67 12 14 12 6 38 -12 38 -8 0 -17 -9 -20 -20z"/>
<path d="M4374 6566 c-3 -8 -1 -22 4 -32 8 -14 10 -13 14 10 6 29 -9 47 -18
22z"/>
<path d="M4585 6240 c3 -5 8 -10 11 -10 2 0 4 5 4 10 0 6 -5 10 -11 10 -5 0
-7 -4 -4 -10z"/>
<path d="M4405 6160 c3 -5 10 -10 16 -10 5 0 9 5 9 10 0 6 -7 10 -16 10 -8 0
-12 -4 -9 -10z"/>
<path d="M4330 6065 c-6 -8 -9 -23 -5 -36 6 -18 9 -19 20 -8 21 23 29 59 12
59 -8 0 -20 -7 -27 -15z"/>
<path d="M2768 6402 c-10 -2 -18 -8 -18 -13 0 -13 27 -11 35 2 9 13 4 16 -17
11z"/>
<path d="M3067 6372 c-23 -25 -21 -32 8 -32 26 0 28 4 16 33 -6 18 -7 18 -24
-1z"/>
<path d="M3152 6378 c-6 -6 -12 -19 -12 -27 0 -13 2 -13 16 1 9 9 15 21 13 27
-3 9 -8 8 -17 -1z"/>
<path d="M2513 6113 c-18 -7 -16 -40 2 -47 11 -4 15 2 15 24 0 17 -1 30 -2 29
-2 0 -9 -3 -15 -6z"/>
<path d="M1720 5589 c0 -5 11 -9 25 -9 33 0 33 15 0 16 -14 1 -25 -2 -25 -7z"/>
<path d="M740 5819 c0 -5 5 -7 10 -4 6 3 10 8 10 11 0 2 -4 4 -10 4 -5 0 -10
-5 -10 -11z"/>
<path d="M810 5800 c0 -11 5 -20 10 -20 6 0 10 9 10 20 0 11 -4 20 -10 20 -5
0 -10 -9 -10 -20z"/>
<path d="M870 5800 c0 -5 5 -10 10 -10 6 0 10 5 10 10 0 6 -4 10 -10 10 -5 0
-10 -4 -10 -10z"/>
<path d="M830 5750 c0 -5 7 -10 15 -10 8 0 15 5 15 10 0 6 -7 10 -15 10 -8 0
-15 -4 -15 -10z"/>
<path d="M3275 5889 c-10 -15 1 -23 20 -15 9 3 13 10 10 16 -8 13 -22 13 -30
-1z"/>
<path d="M1475 5302 c-29 -16 -29 -17 -7 -20 32 -5 52 4 52 23 0 19 -7 18 -45
-3z"/>
<path d="M3323 5215 c-3 -9 -3 -18 0 -21 9 -9 27 6 27 22 0 19 -19 18 -27 -1z"/>
<path d="M2550 4920 c0 -5 4 -10 9 -10 6 0 13 5 16 10 3 6 -1 10 -9 10 -9 0
-16 -4 -16 -10z"/>
<path d="M3211 4864 c0 -11 3 -14 6 -6 3 7 2 16 -1 19 -3 4 -6 -2 -5 -13z"/>
<path d="M3290 4860 c-13 -8 -12 -10 3 -10 9 0 17 5 17 10 0 12 -1 12 -20 0z"/>
<path d="M3338 4843 c7 -3 16 -2 19 1 4 3 -2 6 -13 5 -11 0 -14 -3 -6 -6z"/>
<path d="M3053 4818 c2 -7 12 -13 22 -13 10 0 20 6 23 13 2 7 -6 12 -23 12
-17 0 -25 -5 -22 -12z"/>
<path d="M3164 4739 c-3 -6 -1 -16 5 -22 9 -9 14 -8 21 3 9 15 4 30 -10 30 -5
0 -12 -5 -16 -11z"/>
<path d="M3290 4695 c-10 -12 -8 -16 11 -24 28 -11 42 -1 33 22 -8 21 -28 22
-44 2z"/>
<path d="M3108 4633 c7 -3 16 -2 19 1 4 3 -2 6 -13 5 -11 0 -14 -3 -6 -6z"/>
<path d="M770 4834 c0 -14 5 -24 11 -22 6 2 10 7 10 11 -1 4 -1 14 -1 22 0 8
-4 15 -10 15 -5 0 -10 -12 -10 -26z"/>
<path d="M742 4810 c0 -14 2 -19 5 -12 2 6 2 18 0 25 -3 6 -5 1 -5 -13z"/>
<path d="M770 4731 c0 -6 5 -13 10 -16 6 -3 10 1 10 9 0 9 -4 16 -10 16 -5 0
-10 -4 -10 -9z"/>
<path d="M900 4670 c1 -8 8 -26 16 -40 l15 -25 -6 30 c-7 33 -25 59 -25 35z"/>
<path d="M792 4555 c0 -16 2 -22 5 -12 2 9 2 23 0 30 -3 6 -5 -1 -5 -18z"/>
<path d="M1329 4434 c-13 -16 -3 -44 18 -51 14 -5 45 26 40 40 -6 20 -45 27
-58 11z"/>
<path d="M330 4811 c0 -6 5 -13 10 -16 6 -3 10 1 10 9 0 9 -4 16 -10 16 -5 0
-10 -4 -10 -9z"/>
<path d="M395 4780 c3 -5 8 -10 11 -10 2 0 4 5 4 10 0 6 -5 10 -11 10 -5 0 -7
-4 -4 -10z"/>
<path d="M412 4729 c2 -6 8 -10 13 -10 5 0 11 4 13 10 2 6 -4 11 -13 11 -9 0
-15 -5 -13 -11z"/>
<path d="M354 4691 c5 -8 56 -3 56 5 0 2 -14 4 -31 4 -16 0 -28 -4 -25 -9z"/>
<path d="M375 4529 c-11 -17 -2 -18 19 -3 17 12 17 14 4 14 -9 0 -20 -5 -23
-11z"/>
<path d="M255 4440 c-11 -17 5 -32 21 -19 7 6 11 15 8 20 -7 12 -21 11 -29 -1z"/>
<path d="M770 4015 c0 -8 5 -15 10 -15 6 0 10 7 10 15 0 8 -4 15 -10 15 -5 0
-10 -7 -10 -15z"/>
<path d="M770 3970 c0 -5 5 -10 10 -10 6 0 10 5 10 10 0 6 -4 10 -10 10 -5 0
-10 -4 -10 -10z"/>
<path d="M4090 3278 c0 -24 37 -51 57 -43 17 7 17 8 -2 15 -19 8 -19 9 3 9 12
1 22 6 22 12 0 7 -10 9 -26 5 -15 -4 -32 -2 -40 5 -11 9 -14 8 -14 -3z"/>
<path d="M4055 3250 c-8 -13 3 -30 21 -30 18 0 18 14 0 29 -10 8 -16 9 -21 1z"/>
<path d="M4212 3249 c-13 -5 -20 -13 -17 -19 8 -13 42 -13 51 1 10 17 -9 28
-34 18z"/>
<path d="M3664 3049 c-3 -6 -2 -15 4 -21 13 -13 32 -2 32 18 0 16 -26 19 -36
3z"/>
<path d="M3343 2770 c0 -30 2 -43 4 -27 2 15 2 39 0 55 -2 15 -4 2 -4 -28z"/>
<path d="M4862 2799 c2 -7 10 -15 17 -17 8 -3 12 1 9 9 -2 7 -10 15 -17 17 -8
3 -12 -1 -9 -9z"/>
<path d="M4040 2505 c0 -8 2 -15 4 -15 2 0 6 7 10 15 3 8 1 15 -4 15 -6 0 -10
-7 -10 -15z"/>
<path d="M4192 2455 c0 -16 2 -22 5 -12 2 9 2 23 0 30 -3 6 -5 -1 -5 -18z"/>
<path d="M4081 2454 c0 -11 3 -14 6 -6 3 7 2 16 -1 19 -3 4 -6 -2 -5 -13z"/>
<path d="M4171 2454 c0 -11 3 -14 6 -6 3 7 2 16 -1 19 -3 4 -6 -2 -5 -13z"/>
<path d="M3832 2353 c3 -26 7 -28 43 -28 36 0 40 3 43 28 3 26 2 27 -21 16
-18 -8 -30 -8 -46 1 -21 11 -22 10 -19 -17z"/>
<path d="M4211 2364 c0 -11 3 -14 6 -6 3 7 2 16 -1 19 -3 4 -6 -2 -5 -13z"/>
<path d="M4130 2310 c0 -5 6 -10 14 -10 8 0 16 -7 20 -15 7 -19 66 -21 66 -2
0 8 -11 19 -25 25 -32 15 -75 16 -75 2z"/>
<path d="M3820 2249 c-16 -29 -9 -31 36 -15 l39 14 -28 11 c-36 14 -34 15 -47
-10z"/>
<path d="M6687 3664 c-9 -10 2 -24 19 -24 8 0 14 7 14 15 0 15 -21 21 -33 9z"/>
<path d="M6956 3523 c-9 -10 -7 -43 3 -43 11 0 21 39 11 45 -4 2 -10 2 -14 -2z"/>
<path d="M6927 3513 c-5 -7 -19 -13 -33 -13 -15 0 -27 -7 -30 -17 -3 -10 -9
-25 -14 -34 -6 -11 -2 -30 11 -55 10 -21 19 -46 19 -56 0 -22 16 -24 24 -2 10
26 7 46 -9 64 -15 16 -13 20 15 49 21 20 30 39 28 53 -2 16 -6 19 -11 11z"/>
<path d="M6790 3441 c0 -10 7 -21 15 -25 8 -3 15 -12 15 -21 0 -8 5 -15 10
-15 6 0 10 9 10 20 0 11 -4 20 -10 20 -5 0 -10 9 -10 20 0 11 -7 20 -15 20 -8
0 -15 -9 -15 -19z"/>
<path d="M6785 3240 c-3 -5 -1 -10 4 -10 6 0 11 5 11 10 0 6 -2 10 -4 10 -3 0
-8 -4 -11 -10z"/>
<path d="M3230 3181 c0 -11 5 -23 10 -26 6 -3 10 3 10 14 0 11 -4 23 -10 26
-5 3 -10 -3 -10 -14z"/>
<path d="M2980 2796 c0 -30 28 -42 49 -21 15 15 14 18 -3 31 -29 21 -46 17
-46 -10z"/>
<path d="M6466 2894 c-9 -23 1 -30 23 -17 10 7 28 9 40 6 11 -3 21 -1 21 5 0
23 -75 29 -84 6z"/>
<path d="M5720 2855 c0 -8 5 -15 10 -15 6 0 10 7 10 15 0 8 -4 15 -10 15 -5 0
-10 -7 -10 -15z"/>
<path d="M5984 2749 c-16 -17 -16 -22 -4 -30 13 -8 11 -12 -7 -27 -17 -12 -20
-21 -13 -32 16 -24 12 -40 -10 -40 -13 0 -20 7 -20 20 0 11 -4 20 -9 20 -5 0
-11 -9 -14 -20 -3 -11 -1 -20 4 -20 5 0 5 -10 0 -23 -10 -27 12 -60 49 -72 21
-7 21 -8 6 -17 -9 -5 -24 -7 -32 -4 -11 4 -14 -5 -14 -39 0 -41 2 -45 24 -45
46 0 56 -10 56 -54 0 -33 5 -43 23 -52 24 -11 64 0 79 21 5 6 8 5 8 -2 0 -7 9
-13 19 -13 11 0 23 -4 26 -10 9 -15 25 -12 25 4 0 8 -9 18 -20 21 -11 3 -20
11 -20 16 0 5 -6 9 -13 9 -8 0 -24 11 -36 24 -19 21 -20 24 -6 30 9 3 32 6 51
6 32 0 35 2 28 23 -13 43 -35 77 -49 77 -20 0 -20 50 0 76 8 10 15 33 15 50 0
25 -6 33 -37 48 -37 18 -38 19 -14 27 24 9 24 10 -15 29 -48 25 -56 25 -80 -1z"/>
<path d="M5691 2680 c-14 -22 -32 -39 -39 -37 -8 1 -17 -4 -19 -10 -3 -7 0
-13 6 -13 17 0 13 -27 -4 -34 -26 -9 -17 -35 16 -43 34 -9 40 -26 9 -31 -24
-4 -26 -15 -6 -32 8 -6 12 -18 9 -26 -5 -15 3 -19 55 -28 l32 -5 0 53 c0 29 3
56 7 59 3 4 7 32 8 62 1 45 -2 58 -17 66 -10 5 -18 21 -18 34 0 35 -11 31 -39
-15z m47 -212 c-6 -18 -28 -21 -28 -4 0 9 7 16 16 16 9 0 14 -5 12 -12z"/>
<path d="M5612 2650 c0 -19 2 -27 5 -17 2 9 2 25 0 35 -3 9 -5 1 -5 -18z"/>
<path d="M5840 2640 c0 -11 6 -20 14 -20 9 0 12 7 9 20 -3 11 -9 20 -14 20 -5
0 -9 -9 -9 -20z"/>
<path d="M5790 2560 c-8 -5 -11 -12 -7 -16 4 -4 13 -2 19 4 15 15 7 24 -12 12z"/>
<path d="M6435 2501 c-3 -10 -15 -21 -25 -24 -13 -3 -18 -11 -14 -21 8 -20 34
-21 34 -1 0 9 7 18 15 21 16 7 21 44 6 44 -5 0 -12 -9 -16 -19z"/>
<path d="M6282 2451 c-10 -27 -8 -29 18 -33 26 -4 27 -3 19 26 -5 17 -9 32 -9
33 0 2 -4 3 -9 3 -5 0 -14 -13 -19 -29z"/>
<path d="M5710 2400 c0 -11 11 -30 25 -42 29 -25 32 -38 8 -38 -16 -1 -17 -2
-2 -13 9 -7 20 -27 23 -45 8 -33 23 -41 44 -20 6 6 15 9 18 5 13 -13 9 -52 -6
-59 -9 -4 2 -7 24 -7 22 -1 36 2 33 6 -4 3 1 12 11 19 16 13 16 13 -1 14 -28
0 -9 20 19 20 27 0 34 20 7 20 -10 1 -33 14 -52 30 -34 29 -34 30 -12 38 19 7
13 11 -45 32 -41 15 -69 32 -71 43 -7 23 -23 22 -23 -3z"/>
<path d="M6137 2385 c-3 -7 -3 -15 0 -18 7 -7 33 3 33 13 0 14 -28 19 -33 5z"/>
<path d="M6326 2373 c7 -4 14 -19 17 -33 4 -22 5 -21 4 4 -1 17 -9 31 -17 33
-10 3 -11 2 -4 -4z"/>
<path d="M5743 2213 c9 -2 23 -2 30 0 6 3 -1 5 -18 5 -16 0 -22 -2 -12 -5z"/>
<path d="M6146 2211 c-7 -11 31 -21 52 -14 13 6 13 8 -4 14 -26 11 -42 11 -48
0z"/>
<path d="M6297 2213 c-16 -15 -5 -23 33 -23 29 0 40 4 40 15 0 10 -10 15 -33
15 -19 0 -37 -3 -40 -7z"/>
<path d="M5815 2160 c-17 -6 -14 -9 18 -15 21 -4 41 -5 44 -1 15 14 -35 27
-62 16z"/>
<path d="M7016 2073 c-8 -8 -6 -151 3 -183 7 -23 8 -21 14 15 16 92 6 190 -17
168z"/>
<path d="M6866 1633 c-12 -12 -6 -33 9 -33 8 0 15 6 15 14 0 17 -14 28 -24 19z"/>
<path d="M2720 2415 c0 -8 7 -15 15 -15 8 0 15 7 15 15 0 8 -7 15 -15 15 -8 0
-15 -7 -15 -15z"/>
<path d="M2624 2387 c-5 -15 0 -85 11 -135 6 -25 11 -30 20 -22 10 8 19 8 34
-2 18 -11 24 -10 42 8 17 18 19 26 11 55 -7 29 -13 34 -35 32 -30 -2 -36 17
-12 37 12 10 13 16 4 26 -15 18 -68 18 -75 1z m93 -104 c-3 -10 -5 -4 -5 12 0
17 2 24 5 18 2 -7 2 -21 0 -30z"/>
<path d="M440 959 c0 -5 5 -7 10 -4 6 3 10 8 10 11 0 2 -4 4 -10 4 -5 0 -10
-5 -10 -11z"/>
<path d="M770 843 c0 -5 5 -15 10 -23 8 -12 10 -11 10 8 0 12 -4 22 -10 22 -5
0 -10 -3 -10 -7z"/>
<path d="M3758 1863 c6 -2 18 -2 25 0 6 3 1 5 -13 5 -14 0 -19 -2 -12 -5z"/>
<path d="M3820 1860 c0 -5 4 -10 9 -10 6 0 13 5 16 10 3 6 -1 10 -9 10 -9 0
-16 -4 -16 -10z"/>
<path d="M1552 964 c-1 -12 -9 -27 -17 -34 -11 -9 -13 -16 -5 -24 17 -17 32 8
27 45 -2 19 -5 24 -5 13z"/>
<path d="M542 698 c5 -34 38 -37 38 -4 0 20 -5 26 -21 26 -15 0 -20 -5 -17
-22z"/>
<path d="M668 713 c6 -2 18 -2 25 0 6 3 1 5 -13 5 -14 0 -19 -2 -12 -5z"/>
<path d="M1070 680 c0 -5 6 -10 14 -10 8 0 18 5 21 10 3 6 -3 10 -14 10 -12 0
-21 -4 -21 -10z"/>
<path d="M1298 713 c7 -3 16 -2 19 1 4 3 -2 6 -13 5 -11 0 -14 -3 -6 -6z"/>
<path d="M3489 7433 c0 -5 -2 -27 -5 -50 -3 -23 0 -44 6 -48 6 -4 10 8 10 33
0 26 5 42 15 46 8 3 15 10 15 16 0 11 -40 14 -41 3z"/>
<path d="M5070 7368 c1 -56 3 -69 11 -55 6 10 8 24 5 32 -5 15 17 39 27 28 10
-10 37 18 37 38 0 11 5 19 10 19 6 0 10 -7 10 -15 0 -20 20 -18 50 5 l25 20
-87 0 -88 0 0 -72z"/>
<path d="M547 7400 c-3 -12 -3 -54 1 -94 5 -56 7 -65 13 -41 16 71 3 199 -14
135z"/>
<path d="M586 7398 c-5 -16 -5 -36 0 -45 7 -16 8 -15 11 5 3 12 3 32 0 45 -3
21 -4 20 -11 -5z"/>
<path d="M20 6179 c0 -5 5 -7 10 -4 6 3 10 8 10 11 0 2 -4 4 -10 4 -5 0 -10
-5 -10 -11z"/>
<path d="M60 5100 c0 -5 7 -10 16 -10 8 0 12 5 9 10 -3 6 -10 10 -16 10 -5 0
-9 -4 -9 -10z"/>
<path d="M7311 5051 c-11 -11 -31 -27 -45 -36 -13 -9 -28 -30 -31 -47 -4 -16
-21 -43 -39 -58 -17 -16 -28 -32 -24 -36 13 -13 84 17 112 47 15 16 34 29 42
29 10 0 14 15 14 60 0 33 -2 60 -5 60 -3 0 -14 -9 -24 -19z"/>
<path d="M7180 4991 c0 -6 5 -13 10 -16 6 -3 10 1 10 9 0 9 -4 16 -10 16 -5 0
-10 -4 -10 -9z"/>
<path d="M6900 4905 c-10 -12 -10 -15 3 -15 19 0 31 16 18 24 -5 3 -14 -1 -21
-9z"/>
<path d="M134 4525 c-3 -8 -4 -20 -2 -27 3 -7 7 -1 10 15 6 29 1 36 -8 12z"/>
<path d="M30 4495 c-10 -12 -9 -15 8 -15 11 0 25 7 32 15 10 12 9 15 -8 15
-11 0 -25 -7 -32 -15z"/>
<path d="M81 4401 c-18 -12 -7 -28 24 -33 27 -6 33 10 13 30 -14 14 -19 15
-37 3z"/>
<path d="M52 4360 c0 -19 2 -27 5 -17 2 9 2 25 0 35 -3 9 -5 1 -5 -18z"/>
<path d="M7 4373 c-4 -3 -6 -25 -6 -47 1 -28 3 -33 6 -16 3 14 9 30 13 35 10
12 -3 39 -13 28z"/>
<path d="M1773 186 c-5 -9 -7 -31 -5 -48 l5 -31 13 33 c16 37 4 77 -13 46z"/>
<path d="M1820 170 c0 -5 9 -10 20 -10 11 0 20 5 20 10 0 6 -9 10 -20 10 -11
0 -20 -4 -20 -10z"/>
<path d="M1801 113 c-7 -8 -11 -16 -8 -19 2 -2 10 2 17 11 17 20 9 27 -9 8z"/>
<path d="M1838 124 c-9 -8 17 -34 34 -34 7 0 22 7 32 15 20 15 20 15 0 15 -10
0 -28 3 -39 6 -11 3 -24 2 -27 -2z"/>
<path d="M1743 69 c0 -23 -6 -45 -12 -49 -9 -5 -9 -9 3 -13 9 -4 16 -3 16 1 0
4 10 12 23 17 23 11 32 52 9 47 -8 -1 -16 7 -19 18 -9 34 -20 22 -20 -21z"/>
<path d="M1940 74 c0 -8 5 -12 10 -9 6 3 10 10 10 16 0 5 -4 9 -10 9 -5 0 -10
-7 -10 -16z"/>
<path d="M7318 3 c7 -3 16 -2 19 1 4 3 -2 6 -13 5 -11 0 -14 -3 -6 -6z"/>
</g>
</svg>
