<?xml version="1.0" standalone="no"?>
<!DOCTYPE svg PUBLIC "-//W3C//DTD SVG 20010904//EN"
 "http://www.w3.org/TR/2001/REC-SVG-20010904/DTD/svg10.dtd">
<svg version="1.0" xmlns="http://www.w3.org/2000/svg"
 width="417.000000pt" height="264.000000pt" viewBox="0 0 417.000000 264.000000"
 preserveAspectRatio="xMidYMid meet">

<g transform="translate(0.000000,264.000000) scale(0.100000,-0.100000)"
fill="#000000" stroke="none">
<path d="M0 1320 l0 -1320 2085 0 2085 0 0 1320 0 1320 -2085 0 -2085 0 0
-1320z m2089 606 c7 -8 15 -31 18 -53 6 -35 5 -37 -10 -24 -10 7 -17 21 -17
31 0 37 -25 41 -66 10 -21 -16 -46 -30 -54 -30 -8 0 -40 -21 -70 -46 l-54 -46
205 4 c184 3 208 1 233 -15 44 -29 65 -19 131 68 69 90 104 117 129 96 18 -15
22 -96 6 -106 -6 -4 -10 10 -10 34 0 22 -4 43 -10 46 -10 6 -74 -37 -97 -65
-16 -20 -16 -33 0 -24 6 4 -12 -16 -42 -44 -29 -28 -51 -55 -47 -60 3 -5 -1
-23 -9 -38 -8 -16 -15 -39 -15 -51 0 -32 -30 -59 -74 -67 -65 -12 -130 34
-157 114 -10 27 -15 30 -55 30 -34 0 -46 -4 -50 -17 -31 -102 -81 -147 -153
-140 -66 7 -86 33 -86 113 0 59 3 68 25 85 14 11 50 39 80 62 200 156 221 167
249 133z m-219 -59 c0 -2 -10 -12 -22 -23 l-23 -19 19 23 c18 21 26 27 26 19z
m384 -66 c4 -5 -3 -7 -14 -4 -23 6 -26 13 -6 13 8 0 17 -4 20 -9z m-547 -183
c-2 -18 -4 -6 -4 27 0 33 2 48 4 33 2 -15 2 -42 0 -60z m623 -48 c-6 -12 -14
-19 -18 -16 -3 4 0 12 6 18 7 7 13 21 13 33 1 16 2 16 6 3 2 -9 -1 -27 -7 -38z
m-369 -9 c-6 -11 -21 -26 -32 -32 -18 -9 -17 -5 7 25 30 37 43 41 25 7z m-480
-202 c15 -7 24 -7 35 2 12 10 14 4 14 -40 0 -51 -13 -68 -25 -31 -15 48 -89
75 -136 50 -71 -38 -69 -233 3 -256 64 -20 118 7 118 58 0 21 -6 31 -20 35
-41 11 -18 23 45 23 61 0 84 -11 50 -24 -10 -3 -15 -19 -15 -44 0 -37 -2 -39
-53 -60 -62 -26 -112 -28 -167 -6 -55 22 -80 66 -80 140 0 104 58 164 158 164
29 0 62 -5 73 -11z m499 -134 c40 -99 64 -143 79 -150 38 -18 22 -25 -54 -25
-72 0 -99 12 -54 23 16 4 19 10 14 29 -13 40 -26 48 -81 48 -42 0 -55 -4 -64
-19 -15 -29 -12 -61 5 -61 8 0 15 -4 15 -10 0 -5 -25 -10 -55 -10 -58 0 -70 9
-33 25 16 7 36 47 77 153 72 184 74 184 151 -3z m520 105 c0 -22 -4 -40 -10
-40 -5 0 -10 6 -10 14 0 30 -30 46 -86 46 l-54 0 0 -65 0 -65 29 0 c29 0 61
22 61 41 0 5 3 9 8 9 4 0 7 -27 7 -60 0 -33 -3 -60 -7 -60 -5 0 -8 4 -8 9 0
19 -32 41 -61 41 -28 0 -29 -1 -29 -53 0 -55 12 -77 42 -77 10 0 18 -4 18 -10
0 -6 -33 -10 -80 -10 -75 0 -105 11 -60 23 19 5 20 14 20 141 0 114 -2 136
-15 136 -8 0 -15 5 -15 10 0 6 48 10 125 10 l125 0 0 -40z m380 -105 c41 -103
62 -143 78 -150 39 -17 23 -25 -53 -25 -71 0 -99 11 -56 23 18 4 19 9 9 41
-11 36 -11 36 -69 36 -47 0 -60 -4 -69 -19 -15 -29 -12 -61 5 -61 8 0 15 -4
15 -10 0 -5 -25 -10 -55 -10 -58 0 -69 9 -33 25 16 7 36 47 77 153 73 186 75
186 151 -3z m-1202 -124 c21 -13 10 -46 -16 -49 -27 -4 -40 22 -22 43 14 17
20 18 38 6z m492 -6 c18 -21 5 -47 -22 -43 -26 3 -37 36 -16 49 18 12 24 11
38 -6z m410 0 c17 -20 5 -45 -20 -45 -11 0 -23 7 -26 15 -6 15 11 45 26 45 4
0 13 -7 20 -15z m-2206 -161 c9 -3 16 -10 16 -15 0 -5 -9 -4 -19 3 -15 9 -23
9 -36 -2 -22 -18 -15 -52 15 -67 22 -11 23 -13 4 -13 -42 0 -60 53 -28 84 17
18 24 19 48 10z m1014 -57 c7 -17 8 -26 2 -22 -6 4 -17 21 -24 38 -12 29 -14
30 -21 12 -12 -34 -28 -65 -32 -61 -2 2 6 25 17 51 19 45 22 47 33 29 7 -10
18 -32 25 -47z m309 -4 c-2 -16 -4 -5 -4 22 0 28 2 40 4 28 2 -13 2 -35 0 -50z
m53 7 c-8 -34 -8 -33 -9 15 0 34 3 45 9 35 4 -9 5 -31 0 -50z m420 12 c0 -43
-2 -48 -24 -50 -33 -2 -52 22 -38 51 10 21 10 20 9 -8 -2 -24 2 -30 18 -30 14
0 20 7 21 25 2 47 4 60 9 60 3 0 5 -22 5 -48z m220 41 c-14 -3 -28 -10 -32
-17 -5 -7 -8 -7 -8 0 0 17 12 24 39 23 l26 -2 -25 -4z m457 -80 c-3 -2 -10 12
-17 31 -12 37 -30 40 -30 7 0 -10 -7 -24 -15 -31 -20 -17 -19 -7 7 43 l21 42
19 -43 c11 -24 17 -46 15 -49z m103 37 c0 -44 -20 -61 -49 -43 -20 13 -21 55
-1 60 12 4 12 3 2 -5 -20 -14 -10 -47 13 -47 14 0 20 7 21 25 2 40 4 50 9 50
3 0 5 -18 5 -40z m-2354 -7 c4 -13 4 -27 0 -30 -3 -4 -6 2 -6 12 0 10 -8 27
-17 37 -16 18 -16 18 0 12 10 -3 20 -17 23 -31z m2625 20 c13 -16 12 -17 -3
-4 -17 13 -22 21 -14 21 2 0 10 -8 17 -17z m199 7 c0 -5 -4 -10 -10 -10 -5 0
-10 5 -10 10 0 6 5 10 10 10 6 0 10 -4 10 -10z m488 -15 c-3 -3 -9 2 -12 12
-6 14 -5 15 5 6 7 -7 10 -15 7 -18z m-3463 -12 c0 -21 5 -28 20 -28 16 0 20 6
18 28 -1 15 2 27 8 27 5 0 9 -13 9 -29 0 -28 -14 -41 -46 -41 -15 0 -30 43
-19 59 9 16 11 14 10 -16z m96 -9 c-9 -28 -9 -29 -10 -3 -1 14 2 29 6 32 11
12 13 2 4 -29z m102 21 c-3 -9 -8 -14 -10 -11 -3 3 -2 9 2 15 9 16 15 13 8 -4z
m57 -20 c0 -13 -4 -26 -9 -29 -5 -3 -9 10 -8 28 1 38 17 39 17 1z m42 10 c-5
-30 20 -44 45 -24 14 12 16 12 11 -1 -7 -22 -62 -20 -66 3 -4 18 4 47 11 47 2
0 2 -11 -1 -25z m58 9 c0 -14 -3 -14 -15 -4 -8 7 -15 14 -15 16 0 2 7 4 15 4
8 0 15 -7 15 -16z m48 4 c-2 -6 4 -13 14 -15 10 -3 18 3 20 14 3 17 4 17 11 0
5 -14 0 -19 -23 -24 -16 -3 -27 -10 -24 -15 4 -5 15 -7 27 -4 14 3 17 2 9 -6
-23 -23 -61 14 -48 47 6 18 17 20 14 3z m100 -8 c-14 -22 -24 -19 -15 5 4 8
11 15 17 15 6 0 6 -7 -2 -20z m103 6 c-14 -17 -5 -43 17 -49 15 -4 15 -5 0 -6
-10 0 -22 8 -28 18 -11 21 -4 51 12 51 7 0 6 -5 -1 -14z m56 -21 c-5 -40 -17
-41 -17 -1 0 23 4 35 10 31 6 -4 9 -17 7 -30z m93 0 c0 -5 -5 -3 -10 5 -5 8
-10 20 -10 25 0 6 5 3 10 -5 5 -8 10 -19 10 -25z m21 -16 c-11 -24 -20 -36
-20 -27 -1 16 31 80 37 74 1 -2 -6 -23 -17 -47z m229 47 c0 -3 -4 -8 -10 -11
-5 -3 -10 -1 -10 4 0 6 5 11 10 11 6 0 10 -2 10 -4z m38 -43 c-2 -37 -7 -49
-22 -51 -10 -2 -22 0 -28 6 -6 6 0 8 17 4 27 -5 27 -4 24 42 -2 25 0 46 4 46
4 0 7 -21 5 -47z m63 33 c-5 -6 -11 -20 -14 -31 -3 -14 -5 -10 -6 11 -1 21 4
31 14 31 9 0 11 -4 6 -11z m65 -43 c8 -3 22 3 30 13 14 18 15 18 12 -1 -7 -45
-69 -23 -67 24 l2 26 4 -28 c3 -16 11 -31 19 -34z m194 21 c0 -13 5 -24 12
-24 6 0 8 -3 4 -7 -4 -5 -14 1 -22 11 -16 23 -19 60 -4 51 6 -3 10 -17 10 -31z
m46 -32 c-11 -10 -14 3 -7 38 l6 35 3 -33 c2 -19 1 -36 -2 -40z m56 56 c-5 -7
-12 -22 -15 -33 -4 -16 -5 -15 -6 6 -1 27 6 39 22 39 6 0 5 -5 -1 -12z m59 -2
c-16 -19 -3 -46 21 -46 17 0 20 5 16 30 -3 17 -1 30 4 30 4 0 8 -16 8 -35 0
-31 -3 -35 -25 -35 -31 0 -52 34 -34 56 6 8 14 14 16 14 3 0 0 -6 -6 -14z
m249 -11 c-10 -27 1 -41 25 -31 8 3 15 1 15 -5 0 -16 -42 -6 -53 12 -11 18 -3
49 12 49 7 0 7 -9 1 -25z m46 -4 c-4 -6 -15 -11 -24 -11 -15 1 -15 2 1 11 9 6
14 16 11 22 -5 9 -4 9 6 0 7 -6 9 -16 6 -22z m197 22 c-18 -7 -16 -42 2 -49 8
-4 23 0 32 7 14 12 16 12 11 -1 -6 -20 -48 -19 -61 1 -12 19 -3 49 15 48 10 0
10 -2 1 -6z m47 -9 c0 -8 -4 -12 -10 -9 -5 3 -10 10 -10 16 0 5 5 9 10 9 6 0
10 -7 10 -16z m47 -11 c-2 -23 2 -28 20 -27 12 0 20 -3 17 -8 -17 -27 -59 9
-49 42 9 28 14 25 12 -7z m485 -13 c-6 -39 -9 -38 -14 4 -2 22 0 32 7 29 6 -2
9 -17 7 -33z m46 -1 c-3 -20 -5 -19 -9 9 -3 20 -2 29 4 23 5 -5 7 -19 5 -32z
m94 11 c-2 -16 -6 -30 -8 -30 -2 0 -4 14 -4 30 0 17 4 30 8 30 5 0 7 -13 4
-30z m95 -17 c-3 -10 -5 -2 -5 17 0 19 2 27 5 18 2 -10 2 -26 0 -35z m84 5 c7
-2 9 -10 5 -16 -10 -17 -27 -15 -20 2 3 9 -3 17 -15 21 -12 3 -21 13 -21 21 0
11 5 9 19 -5 10 -10 24 -20 32 -23z m119 27 c-7 -9 -15 -13 -17 -11 -7 7 7 26
19 26 6 0 6 -6 -2 -15z m55 -12 c0 -18 6 -29 16 -31 21 -4 33 26 18 44 -9 11
-8 14 5 14 11 0 16 -9 16 -33 0 -29 -3 -33 -30 -35 -24 -2 -31 2 -36 22 -3 14
-3 30 1 35 9 16 11 14 10 -16z m97 5 c-7 -7 -12 -8 -12 -2 0 14 12 26 19 19 2
-3 -1 -11 -7 -17z m141 7 c-3 -9 -8 -14 -10 -11 -3 3 -2 9 2 15 9 16 15 13 8
-4z m52 -5 c7 -23 -10 -50 -30 -50 -7 0 -19 7 -26 17 -13 15 -12 15 8 2 18
-11 25 -11 35 -1 10 10 10 17 0 32 -7 11 -8 20 -3 20 5 0 13 -9 16 -20z m49 5
c-4 -8 -8 -15 -10 -15 -2 0 -4 7 -4 15 0 8 4 15 10 15 5 0 7 -7 4 -15z m-1504
-4 c0 -6 -4 -13 -10 -16 -5 -3 -10 1 -10 9 0 9 5 16 10 16 6 0 10 -4 10 -9z
m277 -28 c-3 -10 -5 -4 -5 12 0 17 2 24 5 18 2 -7 2 -21 0 -30z m-2251 -10
c-10 -10 -19 5 -10 18 6 11 8 11 12 0 2 -7 1 -15 -2 -18z m269 -11 c-7 -8 -35
7 -35 18 0 6 7 6 20 -2 10 -7 17 -14 15 -16z m795 5 c11 -5 9 -6 -4 -4 -11 1
-21 9 -23 17 -3 10 -2 11 4 4 4 -6 15 -14 23 -17z m2205 7 c9 3 13 2 10 -4
-10 -15 -31 -12 -46 8 -13 15 -12 16 3 3 10 -7 25 -11 33 -7z"/>
<path d="M1863 1242 c-13 -32 -23 -61 -23 -65 0 -4 21 -7 46 -7 44 0 46 1 40
24 -3 13 -14 42 -23 65 l-18 41 -22 -58z"/>
<path d="M2765 1253 c-33 -79 -33 -83 19 -83 25 0 46 3 46 7 0 18 -35 113 -42
113 -4 0 -15 -17 -23 -37z"/>
</g>
</svg>
